<?xml version="1.0" encoding="UTF-8" standalone="no"?>
<svg
   xmlns:dc="http://purl.org/dc/elements/1.1/"
   xmlns:cc="http://creativecommons.org/ns#"
   xmlns:rdf="http://www.w3.org/1999/02/22-rdf-syntax-ns#"
   xmlns:svg="http://www.w3.org/2000/svg"
   xmlns="http://www.w3.org/2000/svg"
   xmlns:xlink="http://www.w3.org/1999/xlink"
   xmlns:sodipodi="http://sodipodi.sourceforge.net/DTD/sodipodi-0.dtd"
   xmlns:inkscape="http://www.inkscape.org/namespaces/inkscape"
   sodipodi:docname="footer.svg"
   inkscape:version="1.0 (4035a4fb49, 2020-05-01)"
   id="svg8"
   version="1.1"
   viewBox="0 0 507.99999 132.29167"
   height="500"
   width="1920">
  <defs
     id="defs2">
    <linearGradient
       id="linearGradient929"
       inkscape:collect="always">
      <stop
         id="stop925"
         offset="0"
         style="stop-color:#f71289;stop-opacity:1;" />
      <stop
         id="stop927"
         offset="1"
         style="stop-color:#045fb4;stop-opacity:1" />
    </linearGradient>
    <linearGradient
       gradientTransform="matrix(3.7795276,0,0,3.7795276,1.110066e-6,-155.54788)"
       gradientUnits="userSpaceOnUse"
       y2="241.84575"
       x2="567.06488"
       y1="241.84575"
       x1="-54.967155"
       id="linearGradient931"
       xlink:href="#linearGradient929"
       inkscape:collect="always" />
    <linearGradient
       y2="241.84575"
       x2="567.06488"
       y1="241.84575"
       x1="-54.967155"
       gradientTransform="matrix(3.7795276,0,0,3.7795276,2.7845707,-564.87386)"
       gradientUnits="userSpaceOnUse"
       id="linearGradient953"
       xlink:href="#linearGradient929"
       inkscape:collect="always" />
    <linearGradient
       y2="241.84575"
       x2="567.06488"
       y1="241.84575"
       x1="-54.967155"
       gradientTransform="matrix(3.7795276,0,0,3.7795276,2.7845702,-592.71916)"
       gradientUnits="userSpaceOnUse"
       id="linearGradient981"
       xlink:href="#linearGradient929"
       inkscape:collect="always" />
    <linearGradient
       y2="241.84575"
       x2="567.06488"
       y1="241.84575"
       x1="-54.967155"
       gradientTransform="matrix(3.7795276,0,0,3.7795276,2.7845702,-592.71914)"
       gradientUnits="userSpaceOnUse"
       id="linearGradient1362"
       xlink:href="#linearGradient929"
       inkscape:collect="always" />
  </defs>
  <sodipodi:namedview
     inkscape:window-maximized="1"
     inkscape:window-y="-8"
     inkscape:window-x="1974"
     inkscape:window-height="1057"
     inkscape:window-width="1858"
     units="px"
     showgrid="false"
     inkscape:document-rotation="0"
     inkscape:current-layer="layer1"
     inkscape:document-units="mm"
     inkscape:cy="330.95739"
     inkscape:cx="965.44934"
     inkscape:zoom="0.71825397"
     inkscape:pageshadow="2"
     inkscape:pageopacity="0.0"
     borderopacity="1.0"
     bordercolor="#666666"
     pagecolor="#ffffff"
     id="base" />
  <metadata
     id="metadata5">
    <rdf:RDF>
      <cc:Work
         rdf:about="">
        <dc:format>image/svg+xml</dc:format>
        <dc:type
           rdf:resource="http://purl.org/dc/dcmitype/StillImage" />
        <dc:title></dc:title>
      </cc:Work>
    </rdf:RDF>
  </metadata>
  <g
     id="layer1"
     inkscape:groupmode="layer"
     inkscape:label="Calque 1">
    <path
       sodipodi:nodetypes="cccccccccccscsccccccccccccccsscccccccc"
       transform="scale(0.26458333)"
       d="M 102.91744,11.146992 C 40.488266,27.874839 -55.193528,106.02735 -55.193359,225.64453 c 3.41e-4,50.289 17.500394,99.01059 49.4980465,137.80664 V 648.58008 962.47461 1300.543 c 45.5547725,-8.0666 85.8317215,-35.0277 111.3066425,-74.5078 20.76246,9.0464 43.09605,13.7099 65.66211,13.7109 31.88767,-9e-4 63.11363,-9.309 90.01367,-26.832 31.16256,30.3357 72.52704,47.2535 115.53711,47.2539 31.92218,-5e-4 63.18064,-9.3284 90.09961,-26.8868 31.74561,35.3545 76.51687,55.4765 123.43555,55.4766 61.65824,10e-5 118.33952,-34.6379 147.58203,-90.1875 24.53676,13.6188 52.0084,20.7519 79.92187,20.752 16.01405,10e-5 31.94546,-2.3479 47.3086,-6.9727 31.75976,41.7692 80.58147,66.1985 132.29882,66.1992 50.3908,0 98.1084,-23.1972 129.9434,-63.1699 31.3528,45.9797 82.6839,73.3787 137.4726,73.3789 56.2738,-5e-4 108.7929,-28.8955 139.8301,-76.9316 27.2572,18.2178 59.1083,27.9194 91.6641,27.9199 31.9118,-2e-4 63.1607,-9.3217 90.0742,-26.8691 31.701,42.6634 81.0653,67.713 133.4394,67.7128 60.2901,-9e-4 115.9357,-33.133 145.7305,-86.7695 18.7073,16.5697 40.7669,28.6964 64.5957,35.5098 V 898.89844 648.58008 398.26172 349.68945 c 25.4128,-36.37303 39.0409,-79.67367 39.041,-124.04492 C 1969.2619,106.02736 1872.293,9.0584447 1752.6758,9.0585938 1658.4343,9.0590029 1575.0098,69.999564 1546.3496,159.77734 1517.6894,69.999564 1434.2649,9.0590029 1340.0234,9.0585938 1251.5204,9.0589136 1171.9214,14.87338 1138.9902,97.02154 998.15825,92.839582 1055.7046,9.0585938 937.95508,9.0585938 855.58267,9.058799 824.36192,12.763431 737.91343,62.674488 620.11852,111.95635 632.33751,11.843834 551.08789,11.84375 c -82.40241,5.1e-5 -137.97101,92.38712 -254.22516,101.92965 -137.19296,0 -8.70974,-152.260125 -193.94529,-102.626408 z"
       style="fill:url(#linearGradient1362);fill-opacity:1;stroke:#000000;stroke-width:3;stroke-linecap:square;stroke-linejoin:round;stroke-miterlimit:4;stroke-dasharray:none;stroke-dashoffset:0;stroke-opacity:1;paint-order:fill markers stroke"
       id="rect833" />
  </g>
</svg>
