<?xml version="1.0" encoding="UTF-8" standalone="no"?>
<svg
   xmlns:dc="http://purl.org/dc/elements/1.1/"
   xmlns:cc="http://creativecommons.org/ns#"
   xmlns:rdf="http://www.w3.org/1999/02/22-rdf-syntax-ns#"
   xmlns:svg="http://www.w3.org/2000/svg"
   xmlns="http://www.w3.org/2000/svg"
   xmlns:xlink="http://www.w3.org/1999/xlink"
   xmlns:sodipodi="http://sodipodi.sourceforge.net/DTD/sodipodi-0.dtd"
   xmlns:inkscape="http://www.inkscape.org/namespaces/inkscape"
   sodipodi:docname="fresqueTemporelle.svg"
   inkscape:version="1.0 (4035a4fb49, 2020-05-01)"
   id="svg8"
   version="1.1"
   viewBox="0 0 158.75 68.791668"
   height="260"
   width="600">
  <defs
     id="defs2">
    <rect
       id="rect1230"
       height="24.473007"
       width="124.52442"
       y="294.3959"
       x="-292.23651" />
    <rect
       id="rect1198"
       height="143.78333"
       width="289.65048"
       y="637.64783"
       x="-642.85736" />
    <linearGradient
       id="linearGradient2935"
       inkscape:collect="always">
      <stop
         id="stop2931"
         offset="0"
         style="stop-color:#0c2bc2;stop-opacity:1" />
      <stop
         id="stop2933"
         offset="1"
         style="stop-color:#ff0032;stop-opacity:1" />
    </linearGradient>
    <linearGradient
       gradientTransform="translate(0,-2.6458334)"
       gradientUnits="userSpaceOnUse"
       y2="668.96027"
       x2="-340.56427"
       y1="668.96027"
       x1="-661.40253"
       id="linearGradient971"
       xlink:href="#linearGradient2935"
       inkscape:collect="always" />
    <linearGradient
       gradientTransform="matrix(0.11263674,0,0,0.11263674,91.502851,-28.066711)"
       gradientUnits="userSpaceOnUse"
       y2="554.94989"
       x2="-464.31271"
       y1="554.94989"
       x1="-535.22748"
       id="linearGradient979"
       xlink:href="#linearGradient2935"
       inkscape:collect="always" />
    <linearGradient
       inkscape:collect="always"
       xlink:href="#linearGradient2935"
       id="linearGradient979-9"
       x1="-535.22748"
       y1="554.94989"
       x2="-464.31271"
       y2="554.94989"
       gradientUnits="userSpaceOnUse"
       gradientTransform="matrix(0.11263674,0,0,-0.11263674,135.87373,88.076408)" />
    <linearGradient
       gradientTransform="matrix(0.11263674,0,0,0.11263674,178.29444,-28.071061)"
       gradientUnits="userSpaceOnUse"
       y2="554.94989"
       x2="-464.31271"
       y1="554.94989"
       x1="-535.22748"
       id="linearGradient979-9-6"
       xlink:href="#linearGradient2935"
       inkscape:collect="always" />
    <rect
       x="-292.23651"
       y="294.3959"
       width="124.52442"
       height="24.473007"
       id="rect1230-7" />
    <rect
       x="-292.23651"
       y="294.3959"
       width="124.52442"
       height="24.473007"
       id="rect1261" />
    <rect
       x="-292.23651"
       y="294.3959"
       width="124.52442"
       height="24.473007"
       id="rect1230-2" />
    <rect
       x="-292.23651"
       y="294.3959"
       width="124.52442"
       height="24.473007"
       id="rect1261-4" />
    <rect
       x="-292.23651"
       y="294.3959"
       width="150.70444"
       height="25.068007"
       id="rect1230-1" />
    <rect
       x="-292.23651"
       y="294.3959"
       width="124.52442"
       height="24.473007"
       id="rect1261-5" />
    <rect
       id="rect1230-7-3"
       height="24.473007"
       width="124.52442"
       y="294.3959"
       x="-292.23651" />
    <rect
       id="rect1348"
       height="24.473007"
       width="124.52442"
       y="294.3959"
       x="-292.23651" />
    <rect
       id="rect1230-2-8"
       height="24.473007"
       width="124.52442"
       y="294.3959"
       x="-292.23651" />
    <rect
       id="rect1351"
       height="24.473007"
       width="124.52442"
       y="294.3959"
       x="-292.23651" />
    <rect
       id="rect1230-1-0"
       height="24.473007"
       width="124.52442"
       y="294.3959"
       x="-292.23651" />
    <rect
       id="rect1354"
       height="24.473007"
       width="124.52442"
       y="294.3959"
       x="-292.23651" />
    <rect
       id="rect1230-7-2"
       height="24.473007"
       width="124.52442"
       y="294.3959"
       x="-292.23651" />
    <rect
       id="rect1348-0"
       height="24.473007"
       width="124.52442"
       y="294.3959"
       x="-292.23651" />
    <rect
       id="rect1230-2-5"
       height="24.473007"
       width="134.34386"
       y="294.3959"
       x="-292.23651" />
    <rect
       id="rect1351-2"
       height="24.473007"
       width="124.52442"
       y="294.3959"
       x="-292.23651" />
    <rect
       id="rect1230-1-5"
       height="24.473007"
       width="124.52442"
       y="294.3959"
       x="-292.23651" />
    <rect
       id="rect1354-7"
       height="24.473007"
       width="124.52442"
       y="294.3959"
       x="-292.23651" />
    <linearGradient
       gradientUnits="userSpaceOnUse"
       y2="279.88492"
       x2="272.57571"
       y1="279.88492"
       x1="106.93906"
       id="linearGradient1583"
       xlink:href="#linearGradient2935"
       inkscape:collect="always"
       gradientTransform="matrix(0.11263674,0,0,0.11263674,56.062048,-27.828957)" />
    <rect
       id="rect1230-7-6"
       height="13.363583"
       width="138.41119"
       y="294.3959"
       x="-292.23651" />
    <rect
       id="rect1650"
       height="24.473007"
       width="124.52442"
       y="294.3959"
       x="-292.23651" />
    <linearGradient
       gradientTransform="translate(-343.27682,-3.6085867)"
       inkscape:collect="always"
       xlink:href="#linearGradient2935"
       id="linearGradient1583-6"
       x1="106.93906"
       y1="279.88492"
       x2="171.20879"
       y2="279.88492"
       gradientUnits="userSpaceOnUse" />
    <linearGradient
       gradientUnits="userSpaceOnUse"
       y2="279.88492"
       x2="272.57571"
       y1="279.88492"
       x1="106.93906"
       id="linearGradient1583-6-2"
       xlink:href="#linearGradient2935"
       inkscape:collect="always"
       gradientTransform="translate(360.33497,1.8519433)" />
    <linearGradient
       inkscape:collect="always"
       xlink:href="#linearGradient2935"
       id="linearGradient1473"
       gradientUnits="userSpaceOnUse"
       gradientTransform="matrix(0.11263674,0,0,0.11263674,19.586662,13.562705)"
       x1="106.93906"
       y1="279.88492"
       x2="171.20879"
       y2="279.88492" />
    <linearGradient
       inkscape:collect="always"
       xlink:href="#linearGradient2935"
       id="linearGradient1475"
       gradientUnits="userSpaceOnUse"
       gradientTransform="matrix(0.11263674,0,0,0.11263674,98.839009,14.177761)"
       x1="106.93906"
       y1="279.88492"
       x2="272.57571"
       y2="279.88492" />
  </defs>
  <sodipodi:namedview
     inkscape:window-maximized="1"
     inkscape:window-y="-8"
     inkscape:window-x="56"
     inkscape:window-height="1057"
     inkscape:window-width="1856"
     showgrid="false"
     inkscape:document-rotation="0"
     inkscape:current-layer="layer1"
     inkscape:document-units="mm"
     inkscape:cy="142.87738"
     inkscape:cx="163.12352"
     inkscape:zoom="4.4084146"
     inkscape:pageshadow="2"
     inkscape:pageopacity="0.0"
     borderopacity="1.0"
     bordercolor="#666666"
     pagecolor="#ffffff"
     id="base"
     units="px" />
  <metadata
     id="metadata5">
    <rdf:RDF>
      <cc:Work
         rdf:about="">
        <dc:format>image/svg+xml</dc:format>
        <dc:type
           rdf:resource="http://purl.org/dc/dcmitype/StillImage" />
        <dc:title />
      </cc:Work>
    </rdf:RDF>
  </metadata>
  <g
     id="layer1"
     inkscape:groupmode="layer"
     inkscape:label="Calque 1">
    <rect
       ry="3.5847073"
       rx="3.5847073"
       y="-35.770607"
       x="-37.51112"
       height="124.83701"
       width="249.67403"
       id="rect92"
       style="fill:#000000;stroke-width:1.32292;stroke-linejoin:round" />
    <path
       sodipodi:nodetypes="ccccscccccccccccscccsccccccccc"
       d="m 140.76032,18.880789 c -1.50164,0.33362 -2.01374,1.338672 -1.50662,3.035245 l 9.71981,6.527179 h -23.49603 c 0.28536,0.542019 0.43446,1.145347 0.43446,1.757889 0,0.619317 -0.15242,1.229121 -0.44382,1.775608 h 23.50539 l -9.71981,6.527169 c -0.50712,1.69657 0.004,2.70162 1.50662,3.035247 l 13.83565,-9.291361 c 0.86298,-0.579509 1.28259,-1.310829 1.27717,-2.037804 0.005,-0.726975 -0.41419,-1.458379 -1.27717,-2.037879 z M 5.3985107,28.443213 c -1.9080188,0 -1.9229798,3.533497 -0.01823,3.533497 H 31.810603 c -0.447406,-0.635802 -0.493072,-1.399444 -0.493072,-2.176889 9e-6,-0.46573 0.337673,-0.922257 0.505752,-1.356608 z m 33.2550103,0 c 0.16808,0.434351 0.386041,0.896064 0.386051,1.361794 0,0.777445 -0.0076,1.535901 -0.454452,2.171703 h 37.825985 c -0.692937,-1.133798 -0.992954,-2.417697 -0.383417,-3.533497 z m 44.539485,0 c 0.594967,1.190883 0.17645,2.415173 -0.363147,3.533497 h 35.699981 c -0.56637,-1.193024 -0.57167,-2.440918 -0.009,-3.533497 z"
       style="fill:none;fill-opacity:1;stroke:#ffffff;stroke-width:0.14901;stroke-miterlimit:4;stroke-dasharray:none;stroke-opacity:1;paint-order:normal"
       id="rect833-6" />
    <path
       sodipodi:nodetypes="csccsssscsssccsc"
       d="m 35.210536,26.341604 c -2.125904,0 -3.849284,1.723409 -3.849275,3.849323 2.8e-5,1.904785 1.393201,3.523133 3.276811,3.806411 v 8.506263 h -15.66312 c -1.011403,0 -1.825656,0.814243 -1.825656,1.825655 v 14.230149 c 0,1.011413 0.814253,1.825657 1.825656,1.825657 h 32.197819 c 1.011407,0 1.825651,-0.814244 1.825651,-1.825657 V 44.329256 c 0,-1.011412 -0.814244,-1.825655 -1.825651,-1.825655 H 35.835609 v -8.514523 c 1.859624,-0.306043 3.224174,-1.913532 3.224183,-3.798151 2e-5,-2.125914 -1.723351,-3.849323 -3.849256,-3.849323 z"
       style="fill:none;fill-opacity:1;stroke:url(#linearGradient979);stroke-width:0.298017;stroke-miterlimit:4;stroke-dasharray:none;stroke-opacity:1"
       id="rect833-4-9" />
    <path
       sodipodi:nodetypes="csccsssscsssccsc"
       id="rect833-4-9-6"
       style="fill:none;fill-opacity:1;stroke:url(#linearGradient979-9);stroke-width:0.298017;stroke-miterlimit:4;stroke-dasharray:none;stroke-opacity:1"
       d="m 79.581387,33.668084 c -2.125898,-9e-6 -3.849269,-1.723417 -3.849259,-3.849322 4e-5,-1.904795 1.393204,-3.523134 3.276802,-3.806421 V 17.50608 H 63.345868 c -1.011406,0 -1.825646,-0.814244 -1.825646,-1.82565 V 2.9759222 c 0,-1.0114064 0.81424,-1.8256498 1.825646,-1.8256498 h 32.197679 c 1.011384,0 1.825628,0.8142434 1.825628,1.8256498 V 15.68043 c 0,1.011406 -0.814244,1.82565 -1.825628,1.82565 H 80.206454 v 8.514521 c 1.859618,0.30606 3.224162,1.913532 3.224172,3.798161 2e-5,2.125905 -1.723351,3.849313 -3.849239,3.849322 z" />
    <path
       sodipodi:nodetypes="csccsssscsssccsc"
       d="m 122.00196,26.337259 c -2.1259,10e-6 -3.84927,1.723409 -3.84925,3.849322 1e-5,1.904795 1.39318,3.523134 3.2768,3.806421 v 8.506262 h -15.66312 c -1.01141,0 -1.82566,0.814244 -1.82566,1.825657 V 58.55507 c 0,1.011404 0.81425,1.825646 1.82566,1.825646 h 32.19782 c 1.01141,0 1.82565,-0.814242 1.82565,-1.825646 V 44.324921 c 0,-1.011413 -0.81424,-1.825657 -1.82565,-1.825657 h -15.33716 v -8.514522 c 1.85961,-0.306052 3.22417,-1.913532 3.22418,-3.798161 3e-5,-2.125913 -1.72336,-3.849312 -3.84927,-3.849322 z"
       style="fill:none;fill-opacity:1;stroke:url(#linearGradient979-9-6);stroke-width:0.298017;stroke-miterlimit:4;stroke-dasharray:none;stroke-opacity:1"
       id="rect833-4-9-6-1" />
    <text
       id="text1220"
       y="4.8363791"
       x="67.822464"
       style="font-style:normal;font-variant:normal;font-weight:normal;font-stretch:normal;font-size:2.90233px;line-height:1.25;font-family:'LEMON MILK';-inkscape-font-specification:'LEMON MILK, Normal';font-variant-ligatures:normal;font-variant-caps:normal;font-variant-numeric:normal;font-variant-east-asian:normal;fill:url(#linearGradient1583);fill-opacity:1;stroke:none;stroke-width:0.072558"
       xml:space="preserve"><tspan
         style="font-style:normal;font-variant:normal;font-weight:normal;font-stretch:normal;font-size:2.90233px;font-family:'LEMON MILK';-inkscape-font-specification:'LEMON MILK, Normal';font-variant-ligatures:normal;font-variant-caps:normal;font-variant-numeric:normal;font-variant-east-asian:normal;fill:url(#linearGradient1583);fill-opacity:1;stroke-width:0.072558"
         y="4.8363791"
         x="67.822464"
         id="tspan1335"
         sodipodi:role="line">Baccalauréat</tspan><tspan
         style="font-style:normal;font-variant:normal;font-weight:normal;font-stretch:normal;font-size:2.90233px;font-family:'LEMON MILK';-inkscape-font-specification:'LEMON MILK, Normal';font-variant-ligatures:normal;font-variant-caps:normal;font-variant-numeric:normal;font-variant-east-asian:normal;fill:url(#linearGradient1583);fill-opacity:1;stroke-width:0.072558"
         y="8.4642916"
         x="67.822464"
         id="tspan1337"
         sodipodi:role="line" /></text>
    <text
       xml:space="preserve"
       id="text1228-0"
       style="font-style:normal;font-variant:normal;font-weight:normal;font-stretch:normal;font-size:10.92px;line-height:1.25;font-family:'LEMON MILK';-inkscape-font-specification:'LEMON MILK, Normal';font-variant-ligatures:normal;font-variant-caps:normal;font-variant-numeric:normal;font-variant-east-asian:normal;white-space:pre;shape-inside:url(#rect1230-7);fill:#ffffff;fill-opacity:1;stroke:none;"
       transform="matrix(0.20116939,0,0,0.20116939,122.88205,-53.028369)"><tspan
         x="-292.23633"
         y="304.67118"><tspan
           style="font-style:normal;font-variant:normal;font-weight:normal;font-stretch:normal;font-size:10.92px;font-family:'LEMON MILK';-inkscape-font-specification:'LEMON MILK, Normal';font-variant-ligatures:normal;font-variant-caps:normal;font-variant-numeric:normal;font-variant-east-asian:normal">Série : STI2D</tspan></tspan></text>
    <text
       xml:space="preserve"
       id="text1228-7"
       style="font-style:normal;font-variant:normal;font-weight:normal;font-stretch:normal;font-size:10.92px;line-height:1.25;font-family:'LEMON MILK';-inkscape-font-specification:'LEMON MILK, Normal';font-variant-ligatures:normal;font-variant-caps:normal;font-variant-numeric:normal;font-variant-east-asian:normal;white-space:pre;shape-inside:url(#rect1230-2);fill:#ffffff;fill-opacity:1;stroke:none;"
       transform="matrix(0.20116939,0,0,0.20116939,122.88611,-49.334219)"><tspan
         x="-292.23633"
         y="304.67118"><tspan
           style="font-style:normal;font-variant:normal;font-weight:normal;font-stretch:normal;font-size:10.92px;font-family:'LEMON MILK';-inkscape-font-specification:'LEMON MILK, Normal';font-variant-ligatures:normal;font-variant-caps:normal;font-variant-numeric:normal;font-variant-east-asian:normal">Spécialité : SIN</tspan></tspan></text>
    <text
       xml:space="preserve"
       id="text1228-1"
       style="font-style:normal;font-variant:normal;font-weight:normal;font-stretch:normal;font-size:10.92px;line-height:1.25;font-family:'LEMON MILK';-inkscape-font-specification:'LEMON MILK, Normal';font-variant-ligatures:normal;font-variant-caps:normal;font-variant-numeric:normal;font-variant-east-asian:normal;white-space:pre;shape-inside:url(#rect1230-1);fill:#ffffff;fill-opacity:1;stroke:none;"
       transform="matrix(0.19919688,0,0,0.19919688,122.37078,-45.141844)"><tspan
         x="-292.23633"
         y="304.67118"><tspan
           style="font-style:normal;font-variant:normal;font-weight:normal;font-stretch:normal;font-size:10.92px;font-family:'LEMON MILK';-inkscape-font-specification:'LEMON MILK, Normal';font-variant-ligatures:normal;font-variant-caps:normal;font-variant-numeric:normal;font-variant-east-asian:normal">Mention : BIEN (15.57)</tspan></tspan></text>
    <g
       style="font-style:normal;font-variant:normal;font-weight:normal;font-stretch:normal;font-size:10.92px;line-height:1.25;font-family:'LEMON MILK';-inkscape-font-specification:'LEMON MILK, Normal';font-variant-ligatures:normal;font-variant-caps:normal;font-variant-numeric:normal;font-variant-east-asian:normal;white-space:pre;shape-inside:url(#rect1230-7-2);fill:#ffffff;fill-opacity:1;stroke:none"
       id="text1228-0-0"
       transform="matrix(0.20116939,0,0,0.20116939,79.09321,-9.5264393)"
       aria-label="Série : generale">
      <path
         id="path304"
         style="font-style:normal;font-variant:normal;font-weight:normal;font-stretch:normal;font-size:10.92px;font-family:'LEMON MILK';-inkscape-font-specification:'LEMON MILK, Normal';font-variant-ligatures:normal;font-variant-caps:normal;font-variant-numeric:normal;font-variant-east-asian:normal"
         d="m -288.9518,304.78848 c 1.65293,0 3.02326,-0.9651 3.02326,-2.4474 0,-1.381 -1.22103,-1.97819 -2.51138,-2.50073 -1.10906,-0.42656 -2.05283,-0.73048 -2.05283,-1.56228 0,-0.76781 0.78914,-1.37566 1.71158,-1.37566 0.77314,0 1.46631,0.43722 1.74357,1.0824 l 0.73049,-0.49055 c -0.31992,-0.84779 -1.18904,-1.54629 -2.4634,-1.54629 -1.50896,0 -2.69801,0.98643 -2.69801,2.30877 0,1.32768 1.17838,1.84488 2.23413,2.25545 1.09839,0.4159 2.33009,0.87979 2.33009,1.84488 0,0.8478 -0.91711,1.45565 -2.04216,1.45565 -0.91178,0 -1.79157,-0.49055 -2.18081,-1.22637 l -0.74648,0.5492 c 0.41057,0.91711 1.50896,1.65293 2.92195,1.65293 z" />
      <path
         id="path306"
         style="font-style:normal;font-variant:normal;font-weight:normal;font-stretch:normal;font-size:10.92px;font-family:'LEMON MILK';-inkscape-font-specification:'LEMON MILK, Normal';font-variant-ligatures:normal;font-variant-caps:normal;font-variant-numeric:normal;font-variant-east-asian:normal"
         d="m -280.98574,293.62854 h -0.87979 l -1.11972,1.74357 h 0.73048 z m 1.38099,3.40183 v -0.95443 h -5.04943 v 8.59524 h 5.04943 v -0.9651 h -4.079 v -2.98594 h 3.53514 v -0.97043 h -3.53514 v -2.71934 z" />
      <path
         id="path308"
         style="font-style:normal;font-variant:normal;font-weight:normal;font-stretch:normal;font-size:10.92px;font-family:'LEMON MILK';-inkscape-font-specification:'LEMON MILK, Normal';font-variant-ligatures:normal;font-variant-caps:normal;font-variant-numeric:normal;font-variant-east-asian:normal"
         d="m -271.88396,304.67118 -2.55405,-3.46583 c 1.04508,-0.31459 1.80756,-1.27435 1.80756,-2.38875 0,-1.51429 -1.30101,-2.74066 -2.89529,-2.74066 h -2.53805 l 0.005,8.59524 h 0.97043 v -3.35385 h 1.60494 l 2.39942,3.35385 z m -5.2094,-4.17499 v -3.46048 h 1.59961 c 1.01309,0 1.86621,0.76781 1.86621,1.75957 0,0.92777 -0.84246,1.70625 -1.86621,1.70625 z" />
      <path
         id="path310"
         style="font-style:normal;font-variant:normal;font-weight:normal;font-stretch:normal;font-size:10.92px;font-family:'LEMON MILK';-inkscape-font-specification:'LEMON MILK, Normal';font-variant-ligatures:normal;font-variant-caps:normal;font-variant-numeric:normal;font-variant-east-asian:normal"
         d="m -270.87621,304.67118 h 0.97043 v -8.59524 h -0.97043 z" />
      <path
         id="path312"
         style="font-style:normal;font-variant:normal;font-weight:normal;font-stretch:normal;font-size:10.92px;font-family:'LEMON MILK';-inkscape-font-specification:'LEMON MILK, Normal';font-variant-ligatures:normal;font-variant-caps:normal;font-variant-numeric:normal;font-variant-east-asian:normal"
         d="m -263.03279,297.03037 v -0.95443 h -5.04944 v 8.59524 h 5.04944 v -0.9651 h -4.07901 v -2.98594 h 3.53514 v -0.97043 h -3.53514 v -2.71934 z" />
      <path
         id="path314"
         style="font-style:normal;font-variant:normal;font-weight:normal;font-stretch:normal;font-size:10.92px;font-family:'LEMON MILK';-inkscape-font-specification:'LEMON MILK, Normal';font-variant-ligatures:normal;font-variant-caps:normal;font-variant-numeric:normal;font-variant-east-asian:normal"
         d="m -257.81273,300.38422 c 0.38923,0 0.70916,-0.31992 0.70916,-0.70383 0,-0.3839 -0.31993,-0.70382 -0.70916,-0.70382 -0.38924,0 -0.70383,0.31459 -0.70383,0.70382 0,0.38924 0.31459,0.70383 0.70383,0.70383 z m 0,4.28696 c 0.38923,0 0.70916,-0.31993 0.70916,-0.70916 0,-0.37858 -0.32526,-0.70383 -0.70916,-0.70383 -0.38391,0 -0.70383,0.31992 -0.70383,0.70383 0,0.38923 0.31459,0.70916 0.70383,0.70916 z" />
      <path
         id="path316"
         style="font-style:normal;font-variant:normal;font-weight:normal;font-stretch:normal;font-size:10.92px;font-family:'LEMON MILK';-inkscape-font-specification:'LEMON MILK, Normal';font-variant-ligatures:normal;font-variant-caps:normal;font-variant-numeric:normal;font-variant-east-asian:normal"
         d="m -244.28537,300.11762 h -4.08434 v 0.87445 h 3.08192 c 0.005,0.048 0.005,0.10664 0.005,0.17063 0,1.51963 -1.32235,2.64469 -3.00194,2.64469 -1.98351,0 -3.50314,-1.54096 -3.50314,-3.4285 0,-1.94619 1.61027,-3.44982 3.42316,-3.44982 0.86379,0 1.90887,0.46388 2.57538,1.12505 l 0.54386,-0.80513 c -0.77314,-0.75182 -2.05816,-1.28502 -3.1139,-1.29035 -2.42608,0 -4.41493,1.99418 -4.41493,4.42025 0,2.42607 1.98352,4.40959 4.45225,4.40959 2.21813,0 4.07367,-1.6476 4.07367,-4.05768 0,-0.24527 -0.0213,-0.47455 -0.0373,-0.61318 z" />
      <path
         id="path318"
         style="font-style:normal;font-variant:normal;font-weight:normal;font-stretch:normal;font-size:10.92px;font-family:'LEMON MILK';-inkscape-font-specification:'LEMON MILK, Normal';font-variant-ligatures:normal;font-variant-caps:normal;font-variant-numeric:normal;font-variant-east-asian:normal"
         d="m -237.84428,297.03037 v -0.95443 h -5.04943 v 8.59524 h 5.04943 v -0.9651 h -4.079 v -2.98594 h 3.53514 v -0.97043 h -3.53514 v -2.71934 z" />
      <path
         id="path320"
         style="font-style:normal;font-variant:normal;font-weight:normal;font-stretch:normal;font-size:10.92px;font-family:'LEMON MILK';-inkscape-font-specification:'LEMON MILK, Normal';font-variant-ligatures:normal;font-variant-caps:normal;font-variant-numeric:normal;font-variant-east-asian:normal"
         d="m -230.36344,296.05461 v 6.4251 l -5.88656,-6.53707 h -0.0533 v 8.7392 h 0.97043 v -6.41977 l 5.89189,6.54241 h 0.048 v -8.74987 z" />
      <path
         id="path322"
         style="font-style:normal;font-variant:normal;font-weight:normal;font-stretch:normal;font-size:10.92px;font-family:'LEMON MILK';-inkscape-font-specification:'LEMON MILK, Normal';font-variant-ligatures:normal;font-variant-caps:normal;font-variant-numeric:normal;font-variant-east-asian:normal"
         d="m -222.53068,297.03037 v -0.95443 h -5.04944 v 8.59524 h 5.04944 v -0.9651 h -4.07901 v -2.98594 h 3.53514 v -0.97043 h -3.53514 v -2.71934 z" />
      <path
         id="path324"
         style="font-style:normal;font-variant:normal;font-weight:normal;font-stretch:normal;font-size:10.92px;font-family:'LEMON MILK';-inkscape-font-specification:'LEMON MILK, Normal';font-variant-ligatures:normal;font-variant-caps:normal;font-variant-numeric:normal;font-variant-east-asian:normal"
         d="m -214.8099,304.67118 -2.55404,-3.46583 c 1.04507,-0.31459 1.80755,-1.27435 1.80755,-2.38875 0,-1.51429 -1.30101,-2.74066 -2.89529,-2.74066 h -2.53805 l 0.005,8.59524 h 0.97043 v -3.35385 h 1.60494 l 2.39941,3.35385 z m -5.2094,-4.17499 v -3.46048 h 1.59961 c 1.01309,0 1.86621,0.76781 1.86621,1.75957 0,0.92777 -0.84246,1.70625 -1.86621,1.70625 z" />
      <path
         id="path326"
         style="font-style:normal;font-variant:normal;font-weight:normal;font-stretch:normal;font-size:10.92px;font-family:'LEMON MILK';-inkscape-font-specification:'LEMON MILK, Normal';font-variant-ligatures:normal;font-variant-caps:normal;font-variant-numeric:normal;font-variant-east-asian:normal"
         d="m -207.56901,304.67118 h 1.05575 l -3.9777,-8.72854 h -0.10664 l -3.97236,8.72854 h 1.05041 l 0.62918,-1.41299 h 4.69218 z m -4.94279,-2.25545 1.97285,-4.42026 1.96752,4.42026 z" />
      <path
         id="path328"
         style="font-style:normal;font-variant:normal;font-weight:normal;font-stretch:normal;font-size:10.92px;font-family:'LEMON MILK';-inkscape-font-specification:'LEMON MILK, Normal';font-variant-ligatures:normal;font-variant-caps:normal;font-variant-numeric:normal;font-variant-east-asian:normal"
         d="m -204.49242,303.70608 v -7.63014 h -0.97043 v 8.59524 h 5.18274 v -0.9651 z" />
      <path
         id="path330"
         style="font-style:normal;font-variant:normal;font-weight:normal;font-stretch:normal;font-size:10.92px;font-family:'LEMON MILK';-inkscape-font-specification:'LEMON MILK, Normal';font-variant-ligatures:normal;font-variant-caps:normal;font-variant-numeric:normal;font-variant-east-asian:normal"
         d="m -194.05763,297.03037 v -0.95443 h -5.04944 v 8.59524 h 5.04944 v -0.9651 h -4.07901 v -2.98594 h 3.53514 v -0.97043 h -3.53514 v -2.71934 z" />
    </g>
    <g
       style="font-style:normal;font-variant:normal;font-weight:normal;font-stretch:normal;font-size:10.92px;line-height:1.25;font-family:'LEMON MILK';-inkscape-font-specification:'LEMON MILK, Normal';font-variant-ligatures:normal;font-variant-caps:normal;font-variant-numeric:normal;font-variant-east-asian:normal;white-space:pre;shape-inside:url(#rect1230-2-5);fill:#ffffff;fill-opacity:1;stroke:none"
       id="text1228-7-9"
       transform="matrix(0.20116939,0,0,0.20116939,79.09727,-4.1124262)"
       aria-label="Mention : Assez BIEN bien">
      <path
         id="path261"
         style="font-style:normal;font-variant:normal;font-weight:normal;font-stretch:normal;font-size:10.92px;font-family:'LEMON MILK';-inkscape-font-specification:'LEMON MILK, Normal';font-variant-ligatures:normal;font-variant-caps:normal;font-variant-numeric:normal;font-variant-east-asian:normal"
         d="m -283.01725,295.91598 -4.10033,6.83566 -4.10033,-6.83566 h -0.11197 v 8.7552 h 0.97043 v -5.84391 l 3.23654,5.69994 h 0.0107 l 3.23121,-5.68928 v 5.83325 h 0.97043 v -8.7552 z" />
      <path
         id="path263"
         style="font-style:normal;font-variant:normal;font-weight:normal;font-stretch:normal;font-size:10.92px;font-family:'LEMON MILK';-inkscape-font-specification:'LEMON MILK, Normal';font-variant-ligatures:normal;font-variant-caps:normal;font-variant-numeric:normal;font-variant-east-asian:normal"
         d="m -276.04295,297.03037 v -0.95443 h -5.04943 v 8.59524 h 5.04943 v -0.9651 h -4.079 v -2.98594 h 3.53513 v -0.97043 h -3.53513 v -2.71934 z" />
      <path
         id="path265"
         style="font-style:normal;font-variant:normal;font-weight:normal;font-stretch:normal;font-size:10.92px;font-family:'LEMON MILK';-inkscape-font-specification:'LEMON MILK, Normal';font-variant-ligatures:normal;font-variant-caps:normal;font-variant-numeric:normal;font-variant-east-asian:normal"
         d="m -268.56211,296.05461 v 6.4251 l -5.88656,-6.53707 h -0.0533 v 8.7392 h 0.97043 v -6.41977 l 5.89189,6.54241 h 0.048 v -8.74987 z" />
      <path
         id="path267"
         style="font-style:normal;font-variant:normal;font-weight:normal;font-stretch:normal;font-size:10.92px;font-family:'LEMON MILK';-inkscape-font-specification:'LEMON MILK, Normal';font-variant-ligatures:normal;font-variant-caps:normal;font-variant-numeric:normal;font-variant-east-asian:normal"
         d="m -260.45209,296.07594 h -5.96121 v 0.95977 h 2.50072 v 7.63547 h 0.97043 v -7.63547 h 2.49006 z" />
      <path
         id="path269"
         style="font-style:normal;font-variant:normal;font-weight:normal;font-stretch:normal;font-size:10.92px;font-family:'LEMON MILK';-inkscape-font-specification:'LEMON MILK, Normal';font-variant-ligatures:normal;font-variant-caps:normal;font-variant-numeric:normal;font-variant-east-asian:normal"
         d="m -259.27371,304.67118 h 0.97043 v -8.59524 h -0.97043 z" />
      <path
         id="path271"
         style="font-style:normal;font-variant:normal;font-weight:normal;font-stretch:normal;font-size:10.92px;font-family:'LEMON MILK';-inkscape-font-specification:'LEMON MILK, Normal';font-variant-ligatures:normal;font-variant-caps:normal;font-variant-numeric:normal;font-variant-east-asian:normal"
         d="m -252.52336,304.78315 c 2.43674,0 4.42559,-1.98352 4.42559,-4.40426 0,-2.43674 -1.98885,-4.42559 -4.42025,-4.42559 -2.42608,0 -4.41493,1.98885 -4.41493,4.42559 0,2.42074 1.98885,4.40426 4.40959,4.40426 z m 0,-0.9811 c -1.88754,0 -3.42849,-1.54095 -3.42849,-3.42849 0,-1.89287 1.54095,-3.44449 3.42849,-3.44449 1.89821,0 3.4445,1.55162 3.4445,3.44449 0,1.88754 -1.54629,3.42849 -3.4445,3.42849 z" />
      <path
         id="path273"
         style="font-style:normal;font-variant:normal;font-weight:normal;font-stretch:normal;font-size:10.92px;font-family:'LEMON MILK';-inkscape-font-specification:'LEMON MILK, Normal';font-variant-ligatures:normal;font-variant-caps:normal;font-variant-numeric:normal;font-variant-east-asian:normal"
         d="m -240.79289,296.05461 v 6.4251 l -5.88656,-6.53707 h -0.0533 v 8.7392 h 0.97043 v -6.41977 l 5.89189,6.54241 h 0.048 v -8.74987 z" />
      <path
         id="path275"
         style="font-style:normal;font-variant:normal;font-weight:normal;font-stretch:normal;font-size:10.92px;font-family:'LEMON MILK';-inkscape-font-specification:'LEMON MILK, Normal';font-variant-ligatures:normal;font-variant-caps:normal;font-variant-numeric:normal;font-variant-east-asian:normal"
         d="m -234.33047,300.38422 c 0.38924,0 0.70916,-0.31992 0.70916,-0.70383 0,-0.3839 -0.31992,-0.70382 -0.70916,-0.70382 -0.38924,0 -0.70383,0.31459 -0.70383,0.70382 0,0.38924 0.31459,0.70383 0.70383,0.70383 z m 0,4.28696 c 0.38924,0 0.70916,-0.31993 0.70916,-0.70916 0,-0.37858 -0.32525,-0.70383 -0.70916,-0.70383 -0.3839,0 -0.70383,0.31992 -0.70383,0.70383 0,0.38923 0.31459,0.70916 0.70383,0.70916 z" />
      <path
         id="path277"
         style="font-style:normal;font-variant:normal;font-weight:normal;font-stretch:normal;font-size:10.92px;font-family:'LEMON MILK';-inkscape-font-specification:'LEMON MILK, Normal';font-variant-ligatures:normal;font-variant-caps:normal;font-variant-numeric:normal;font-variant-east-asian:normal"
         d="m -222.60533,304.67118 h 1.05574 l -3.97769,-8.72854 h -0.10664 l -3.97237,8.72854 h 1.05041 l 0.62918,-1.41299 h 4.69219 z m -4.94279,-2.25545 1.97285,-4.42026 1.96752,4.42026 z" />
      <path
         id="path279"
         style="font-style:normal;font-variant:normal;font-weight:normal;font-stretch:normal;font-size:10.92px;font-family:'LEMON MILK';-inkscape-font-specification:'LEMON MILK, Normal';font-variant-ligatures:normal;font-variant-caps:normal;font-variant-numeric:normal;font-variant-east-asian:normal"
         d="m -218.37703,304.78848 c 1.65293,0 3.02326,-0.9651 3.02326,-2.4474 0,-1.381 -1.22103,-1.97819 -2.51138,-2.50073 -1.10907,-0.42656 -2.05284,-0.73048 -2.05284,-1.56228 0,-0.76781 0.78914,-1.37566 1.71159,-1.37566 0.77314,0 1.4663,0.43722 1.74357,1.0824 l 0.73049,-0.49055 c -0.31992,-0.84779 -1.18904,-1.54629 -2.4634,-1.54629 -1.50896,0 -2.69801,0.98643 -2.69801,2.30877 0,1.32768 1.17838,1.84488 2.23412,2.25545 1.0984,0.4159 2.3301,0.87979 2.3301,1.84488 0,0.8478 -0.91711,1.45565 -2.04217,1.45565 -0.91177,0 -1.79156,-0.49055 -2.1808,-1.22637 l -0.74648,0.5492 c 0.41056,0.91711 1.50896,1.65293 2.92195,1.65293 z" />
      <path
         id="path281"
         style="font-style:normal;font-variant:normal;font-weight:normal;font-stretch:normal;font-size:10.92px;font-family:'LEMON MILK';-inkscape-font-specification:'LEMON MILK, Normal';font-variant-ligatures:normal;font-variant-caps:normal;font-variant-numeric:normal;font-variant-east-asian:normal"
         d="m -211.70132,304.78848 c 1.65293,0 3.02326,-0.9651 3.02326,-2.4474 0,-1.381 -1.22104,-1.97819 -2.51139,-2.50073 -1.10906,-0.42656 -2.05283,-0.73048 -2.05283,-1.56228 0,-0.76781 0.78914,-1.37566 1.71158,-1.37566 0.77315,0 1.46631,0.43722 1.74358,1.0824 l 0.73048,-0.49055 c -0.31992,-0.84779 -1.18904,-1.54629 -2.46339,-1.54629 -1.50897,0 -2.69801,0.98643 -2.69801,2.30877 0,1.32768 1.17838,1.84488 2.23412,2.25545 1.0984,0.4159 2.3301,0.87979 2.3301,1.84488 0,0.8478 -0.91711,1.45565 -2.04217,1.45565 -0.91178,0 -1.79156,-0.49055 -2.1808,-1.22637 l -0.74649,0.5492 c 0.41057,0.91711 1.50897,1.65293 2.92196,1.65293 z" />
      <path
         id="path283"
         style="font-style:normal;font-variant:normal;font-weight:normal;font-stretch:normal;font-size:10.92px;font-family:'LEMON MILK';-inkscape-font-specification:'LEMON MILK, Normal';font-variant-ligatures:normal;font-variant-caps:normal;font-variant-numeric:normal;font-variant-east-asian:normal"
         d="m -202.35428,297.03037 v -0.95443 h -5.04943 v 8.59524 h 5.04943 v -0.9651 h -4.079 v -2.98594 h 3.53513 v -0.97043 h -3.53513 v -2.71934 z" />
      <path
         id="path285"
         style="font-style:normal;font-variant:normal;font-weight:normal;font-stretch:normal;font-size:10.92px;font-family:'LEMON MILK';-inkscape-font-specification:'LEMON MILK, Normal';font-variant-ligatures:normal;font-variant-caps:normal;font-variant-numeric:normal;font-variant-east-asian:normal"
         d="m -201.1759,304.67118 h 6.04653 v -0.9651 h -4.47891 l 4.47891,-7.63014 h -6.04653 v 0.95977 h 4.47891 z" />
      <path
         id="path287"
         style="font-style:normal;font-variant:normal;font-weight:normal;font-stretch:normal;font-size:10.92px;font-family:'LEMON MILK';-inkscape-font-specification:'LEMON MILK, Normal';font-variant-ligatures:normal;font-variant-caps:normal;font-variant-numeric:normal;font-variant-east-asian:normal"
         d="m -186.76875,299.82969 c 0.43723,0 1.11439,-0.67717 1.11439,-1.61027 0,-1.13039 -1.03441,-2.14348 -2.46873,-2.14348 h -2.34609 v 8.59524 h 3.18322 c 1.64227,0 2.71934,-1.2637 2.71934,-2.62336 0,-1.29569 -1.0984,-2.21813 -2.20213,-2.21813 z m -1.30102,-2.80998 c 0.8158,0 1.50364,0.57586 1.50364,1.31168 0,0.72516 -0.57586,1.29568 -1.50897,1.29035 h -1.42898 v -2.60203 z m 0.70383,6.70236 h -2.13814 v -3.23654 h 2.09015 c 1.13573,-0.005 1.89821,0.69316 1.89821,1.4983 0,0.99709 -0.86912,1.73824 -1.85022,1.73824 z" />
      <path
         id="path289"
         style="font-style:normal;font-variant:normal;font-weight:normal;font-stretch:normal;font-size:10.92px;font-family:'LEMON MILK';-inkscape-font-specification:'LEMON MILK, Normal';font-variant-ligatures:normal;font-variant-caps:normal;font-variant-numeric:normal;font-variant-east-asian:normal"
         d="m -183.38824,304.67118 h 0.97043 v -8.59524 h -0.97043 z" />
      <path
         id="path291"
         style="font-style:normal;font-variant:normal;font-weight:normal;font-stretch:normal;font-size:10.92px;font-family:'LEMON MILK';-inkscape-font-specification:'LEMON MILK, Normal';font-variant-ligatures:normal;font-variant-caps:normal;font-variant-numeric:normal;font-variant-east-asian:normal"
         d="m -175.54482,297.03037 v -0.95443 h -5.04944 v 8.59524 h 5.04944 v -0.9651 h -4.07901 v -2.98594 h 3.53514 v -0.97043 h -3.53514 v -2.71934 z" />
      <path
         id="path293"
         style="font-style:normal;font-variant:normal;font-weight:normal;font-stretch:normal;font-size:10.92px;font-family:'LEMON MILK';-inkscape-font-specification:'LEMON MILK, Normal';font-variant-ligatures:normal;font-variant-caps:normal;font-variant-numeric:normal;font-variant-east-asian:normal"
         d="m -168.06398,296.05461 v 6.4251 l -5.88656,-6.53707 h -0.0533 v 8.7392 h 0.97043 v -6.41977 l 5.89189,6.54241 h 0.048 v -8.74987 z" />
      <path
         id="path295"
         style="font-style:normal;font-variant:normal;font-weight:normal;font-stretch:normal;font-size:10.92px;font-family:'LEMON MILK';-inkscape-font-specification:'LEMON MILK, Normal';font-variant-ligatures:normal;font-variant-caps:normal;font-variant-numeric:normal;font-variant-east-asian:normal"
         d="m -287.62945,324.30235 c 0.43722,0 1.11439,-0.67717 1.11439,-1.61028 0,-1.13039 -1.03441,-2.14347 -2.46873,-2.14347 h -2.34609 v 8.59523 h 3.18322 c 1.64227,0 2.71934,-1.26369 2.71934,-2.62336 0,-1.29568 -1.0984,-2.21812 -2.20213,-2.21812 z m -1.30102,-2.80998 c 0.8158,0 1.50363,0.57586 1.50363,1.31168 0,0.72515 -0.57586,1.29568 -1.50896,1.29035 h -1.42899 v -2.60203 z m 0.70383,6.70236 h -2.13815 v -3.23654 h 2.09016 c 1.13572,-0.005 1.8982,0.69316 1.8982,1.4983 0,0.99709 -0.86912,1.73824 -1.85021,1.73824 z" />
      <path
         id="path297"
         style="font-style:normal;font-variant:normal;font-weight:normal;font-stretch:normal;font-size:10.92px;font-family:'LEMON MILK';-inkscape-font-specification:'LEMON MILK, Normal';font-variant-ligatures:normal;font-variant-caps:normal;font-variant-numeric:normal;font-variant-east-asian:normal"
         d="m -284.24895,329.14383 h 0.97043 v -8.59523 h -0.97043 z" />
      <path
         id="path299"
         style="font-style:normal;font-variant:normal;font-weight:normal;font-stretch:normal;font-size:10.92px;font-family:'LEMON MILK';-inkscape-font-specification:'LEMON MILK, Normal';font-variant-ligatures:normal;font-variant-caps:normal;font-variant-numeric:normal;font-variant-east-asian:normal"
         d="m -276.40553,321.50303 v -0.95443 h -5.04943 v 8.59523 h 5.04943 v -0.9651 h -4.079 v -2.98593 h 3.53514 v -0.97043 h -3.53514 v -2.71934 z" />
      <path
         id="path301"
         style="font-style:normal;font-variant:normal;font-weight:normal;font-stretch:normal;font-size:10.92px;font-family:'LEMON MILK';-inkscape-font-specification:'LEMON MILK, Normal';font-variant-ligatures:normal;font-variant-caps:normal;font-variant-numeric:normal;font-variant-east-asian:normal"
         d="m -268.92469,320.52727 v 6.4251 l -5.88656,-6.53707 h -0.0533 v 8.7392 h 0.97043 v -6.41977 l 5.89189,6.5424 h 0.048 v -8.74986 z" />
    </g>
    <text
       transform="matrix(0.20116939,0,0,0.20116939,165.05992,-10.026387)"
       style="font-style:normal;font-variant:normal;font-weight:normal;font-stretch:normal;font-size:10.92px;line-height:1.25;font-family:'LEMON MILK';-inkscape-font-specification:'LEMON MILK, Normal';font-variant-ligatures:normal;font-variant-caps:normal;font-variant-numeric:normal;font-variant-east-asian:normal;white-space:pre;shape-inside:url(#rect1230-7-6);fill:#ffffff;fill-opacity:1;stroke:none;"
       id="text1228-0-4"
       xml:space="preserve"><tspan
         x="-292.23633"
         y="304.67118"><tspan
           style="font-style:normal;font-variant:normal;font-weight:normal;font-stretch:normal;font-size:10.92px;font-family:'LEMON MILK';-inkscape-font-specification:'LEMON MILK, Normal';font-variant-ligatures:normal;font-variant-caps:normal;font-variant-numeric:normal;font-variant-east-asian:normal">Série : INFORMATIQUE </tspan></tspan><tspan
         style="visibility:hidden"
         x="-292.23633"
         y="318.03446"><tspan
           dx="0 2.7939844 8.7232037 6.0571871 9.746954 7.1875782 10.237499 7.272892 6.5050774 2.7939835 9.7469559 7.9980469"
           style="font-style:normal;font-variant:normal;font-weight:normal;font-stretch:normal;font-size:10.92px;font-family:'LEMON MILK';-inkscape-font-specification:'LEMON MILK, Normal';font-variant-ligatures:normal;font-variant-caps:normal;font-variant-numeric:normal;font-variant-east-asian:normal">Informatique</tspan></tspan></text>
    <text
       xml:space="preserve"
       style="font-style:normal;font-variant:normal;font-weight:normal;font-stretch:normal;font-size:2.90233px;line-height:1.25;font-family:'LEMON MILK';-inkscape-font-specification:'LEMON MILK, Normal';font-variant-ligatures:normal;font-variant-caps:normal;font-variant-numeric:normal;font-variant-east-asian:normal;fill:url(#linearGradient1473);fill-opacity:1;stroke:none;stroke-width:0.072558"
       x="31.347065"
       y="46.228027"
       id="text1220-0"><tspan
         sodipodi:role="line"
         id="tspan1335-0"
         x="31.347065"
         y="46.228027"
         style="font-style:normal;font-variant:normal;font-weight:normal;font-stretch:normal;font-size:2.90233px;font-family:'LEMON MILK';-inkscape-font-specification:'LEMON MILK, Normal';font-variant-ligatures:normal;font-variant-caps:normal;font-variant-numeric:normal;font-variant-east-asian:normal;fill:url(#linearGradient1473);fill-opacity:1;stroke-width:0.072558">D.N.B</tspan><tspan
         sodipodi:role="line"
         id="tspan1337-7"
         x="31.347065"
         y="49.855938"
         style="font-style:normal;font-variant:normal;font-weight:normal;font-stretch:normal;font-size:2.90233px;font-family:'LEMON MILK';-inkscape-font-specification:'LEMON MILK, Normal';font-variant-ligatures:normal;font-variant-caps:normal;font-variant-numeric:normal;font-variant-east-asian:normal;fill:url(#linearGradient1473);fill-opacity:1;stroke-width:0.072558" /></text>
    <text
       id="text1220-0-0"
       y="46.84306"
       x="110.59982"
       style="font-style:normal;font-variant:normal;font-weight:normal;font-stretch:normal;font-size:2.90233px;line-height:1.25;font-family:'LEMON MILK';-inkscape-font-specification:'LEMON MILK, Normal';font-variant-ligatures:normal;font-variant-caps:normal;font-variant-numeric:normal;font-variant-east-asian:normal;fill:url(#linearGradient1475);fill-opacity:1;stroke:none;stroke-width:0.072558"
       xml:space="preserve"><tspan
         style="font-style:normal;font-variant:normal;font-weight:normal;font-stretch:normal;font-size:2.90233px;font-family:'LEMON MILK';-inkscape-font-specification:'LEMON MILK, Normal';font-variant-ligatures:normal;font-variant-caps:normal;font-variant-numeric:normal;font-variant-east-asian:normal;fill:url(#linearGradient1475);fill-opacity:1;stroke-width:0.072558"
         y="46.84306"
         x="110.59982"
         id="tspan1335-0-1"
         sodipodi:role="line">1ere année dut</tspan><tspan
         style="font-style:normal;font-variant:normal;font-weight:normal;font-stretch:normal;font-size:2.90233px;font-family:'LEMON MILK';-inkscape-font-specification:'LEMON MILK, Normal';font-variant-ligatures:normal;font-variant-caps:normal;font-variant-numeric:normal;font-variant-east-asian:normal;fill:url(#linearGradient1475);fill-opacity:1;stroke-width:0.072558"
         y="50.47097"
         x="110.59982"
         id="tspan1337-7-7"
         sodipodi:role="line" /></text>
  </g>
</svg>
