<?xml version="1.0" encoding="UTF-8" standalone="no"?>
<svg
   xmlns:dc="http://purl.org/dc/elements/1.1/"
   xmlns:cc="http://creativecommons.org/ns#"
   xmlns:rdf="http://www.w3.org/1999/02/22-rdf-syntax-ns#"
   xmlns:svg="http://www.w3.org/2000/svg"
   xmlns="http://www.w3.org/2000/svg"
   xmlns:xlink="http://www.w3.org/1999/xlink"
   xmlns:sodipodi="http://sodipodi.sourceforge.net/DTD/sodipodi-0.dtd"
   xmlns:inkscape="http://www.inkscape.org/namespaces/inkscape"
   inkscape:version="0.92.5 (2060ec1f9f, 2020-04-08)"
   sodipodi:docname="githubRadient.svg"
   viewBox="0 0 510 510"
   height="510"
   width="510"
   id="svg833"
   version="1.1">
  <metadata
     id="metadata839">
    <rdf:RDF>
      <cc:Work
         rdf:about="">
        <dc:format>image/svg+xml</dc:format>
        <dc:type
           rdf:resource="http://purl.org/dc/dcmitype/StillImage" />
        <dc:title />
      </cc:Work>
    </rdf:RDF>
  </metadata>
  <defs
     id="defs837">
    <linearGradient
       id="linearGradient851"
       inkscape:collect="always">
      <stop
         id="stop847"
         offset="0"
         style="stop-color:#0c2bc2;stop-opacity:1" />
      <stop
         id="stop849"
         offset="1"
         style="stop-color:#ff0032;stop-opacity:1" />
    </linearGradient>
    <linearGradient
       gradientTransform="matrix(1.1882096,0,0,1.2288038,223.01239,136.48381)"
       gradientUnits="userSpaceOnUse"
       y2="83.737137"
       x2="235.35115"
       y1="81.947395"
       x1="-180.08081"
       id="linearGradient853"
       xlink:href="#linearGradient851"
       inkscape:collect="always" />
  </defs>
  <sodipodi:namedview
     inkscape:current-layer="g841"
     inkscape:window-maximized="1"
     inkscape:window-y="27"
     inkscape:window-x="68"
     inkscape:cy="129.46327"
     inkscape:cx="131.31733"
     inkscape:zoom="0.79017858"
     showgrid="false"
     id="namedview835"
     inkscape:window-height="1016"
     inkscape:window-width="1852"
     inkscape:pageshadow="2"
     inkscape:pageopacity="0"
     guidetolerance="10"
     gridtolerance="10"
     objecttolerance="10"
     borderopacity="1"
     bordercolor="#666666"
     pagecolor="#ffffff" />
  <g
     id="g841"
     inkscape:label="Image"
     inkscape:groupmode="layer">
    <ellipse
       style="opacity:1;fill:#000000;fill-opacity:1;stroke:none;stroke-width:6.05642128;stroke-miterlimit:4;stroke-dasharray:none;stroke-opacity:1"
       id="path817"
       cx="252.285"
       cy="259.2749"
       rx="247.5"
       ry="247.50002" />
    <path
       id="path845"
       d="M 167.18672,501.20367 C 118.07153,482.32134 75.282062,447.31673 45.940977,402.01651 36.47359,387.39951 22.316495,357.34456 17.100146,340.78808 0.64108,288.54942 0.681278,233.66316 17.216486,181.69627 48.125373,84.556068 131.67021,16.003679 231.39786,5.950664 c 73.52187,-7.4113506 148.35779,20.526983 201.10778,75.079111 51.71648,53.483335 78.34144,129.873465 71.11059,204.024735 -1.7161,17.59851 -6.30136,40.35646 -11.29252,56.04807 -5.20376,16.35999 -19.43813,46.4806 -28.78664,60.91393 -25.06294,38.69517 -58.16472,68.56766 -98.29453,88.7053 -28.48548,14.29437 -38.97844,16.73792 -45.0293,10.48616 -2.42955,-2.51027 -2.51638,-3.88792 -3.12228,-49.55208 -0.59871,-45.1221 -0.7314,-47.28427 -3.37406,-54.95724 -1.51304,-4.39297 -4.8541,-11.17921 -7.42467,-15.08054 -3.11425,-4.72642 -4.16903,-7.24415 -3.16106,-7.54543 0.83195,-0.24868 7.12702,-1.38996 13.98892,-2.53617 24.17847,-4.03878 47.39246,-14.11832 61.99996,-26.92043 16.25957,-14.2499 28.07815,-37.14715 32.42015,-62.81057 6.86236,-40.56002 0.89645,-72.54211 -18.09932,-97.0272 l -4.61112,-5.9436 2.16787,-8.085 c 2.97075,-11.07944 2.9032,-30.69941 -0.15107,-43.87339 -3.61289,-15.58359 -4.19997,-16.48894 -10.69253,-16.48894 -12.10947,0 -31.28628,7.21896 -50.38005,18.96512 l -12.62022,7.7638 -9.22544,-2.1977 c -18.73595,-4.46328 -28.2199,-5.43181 -53.18926,-5.43181 -24.96927,0 -34.45321,0.96853 -53.18917,5.43181 l -9.22553,2.1977 -12.62013,-7.7638 c -19.09377,-11.74616 -38.27069,-18.96512 -50.38015,-18.96512 -6.49266,0 -7.07974,0.90535 -10.69272,16.48894 -3.05408,13.17398 -3.12161,32.79395 -0.15085,43.87339 l 2.16794,8.085 -4.61111,5.9436 c -15.26714,19.67884 -22.3251,44.73024 -20.65638,73.31766 2.6681,45.7082 16.74868,75.01912 45.29724,94.29249 13.59689,9.17943 33.46803,16.51918 53.46215,19.74725 15.40124,2.48656 14.45371,1.6176 9.45008,8.66697 -4.36075,6.14336 -9.97199,20.31631 -10.01909,25.30638 -0.0615,6.4739 -28.47443,11.3371 -42.27202,7.23532 -12.76692,-3.79537 -21.82581,-11.39117 -30.70516,-25.74635 -5.66061,-9.15113 -13.55215,-16.80621 -22.29153,-21.62334 -14.517643,-8.00212 -32.519917,-5.35999 -25.618945,3.75991 0.796198,1.05209 4.404349,4.15913 8.018179,6.90457 11.264366,8.55745 18.182836,17.5378 25.499016,33.09761 7.77615,16.53799 14.11643,23.9967 25.40964,29.89231 11.78288,6.15118 20.9197,7.80552 38.76573,7.01907 8.49556,-0.37441 16.91704,-1.04793 18.71422,-1.49671 l 3.26756,-0.81596 v 26.02891 c 0,15.5023 -0.49477,26.98499 -1.22334,28.393 -1.60546,3.10217 -7.31439,6.09123 -11.4909,6.01622 -1.82961,-0.0328 -7.43518,-1.63934 -12.45707,-3.56995 z m -3.90571,-75.45045 c -3.14376,-2.37734 -1.53716,-5.70731 2.75359,-5.70731 1.90112,0 4.17017,0.88929 5.04242,1.97618 1.34752,1.67903 1.24584,2.23332 -0.6757,3.68641 -2.83239,2.14188 -4.33465,2.15133 -7.12031,0.0447 z m 18.38317,-2.00473 c -2.96319,-1.9535 0.13516,-5.54578 4.78335,-5.54578 4.51956,0 5.68066,1.90541 2.90824,4.77259 -2.15876,2.23238 -5.03901,2.52192 -7.69159,0.77319 z m -39.19835,-1.84373 c -2.09341,-2.6085 -0.59152,-5.54525 2.83579,-5.54525 3.5444,0 6.8061,3.08421 5.88572,5.56517 -0.87168,2.34894 -6.83146,2.33534 -8.72151,-0.0199 z m -16.40988,-9.47743 c -0.78428,-0.81101 -1.42584,-2.74637 -1.42584,-4.30081 0,-2.12992 0.67334,-2.82625 2.73279,-2.82625 3.48236,0 5.58465,2.17418 5.58465,5.77536 0,2.12993 -0.67323,2.82625 -2.73297,2.82625 -1.50292,0 -3.37444,-0.66354 -4.15863,-1.47455 z M 113.70529,396.0509 c -1.0441,-2.36991 -1.03029,-3.45465 0.0577,-4.58038 2.0657,-2.13625 5.42926,0.39129 5.89575,4.43044 0.30087,2.60591 -0.11899,3.25528 -2.10486,3.25528 -1.50027,0 -3.02164,-1.22741 -3.84896,-3.10534 z m -9.90691,-14.22159 c -1.2083,-3.93729 1.25899,-5.69782 4.16875,-2.97459 3.2616,3.05251 3.04254,5.55588 -0.48597,5.55588 -1.89317,0 -3.16371,-0.89072 -3.68278,-2.58129 z M 93.07853,372.0155 c -0.43906,-0.73474 -0.18851,-1.96647 0.55672,-2.73719 1.49252,-1.54344 4.93458,0.0215 5.77372,2.62485 0.5936,1.84172 -5.23517,1.94515 -6.33044,0.1123 z"
       style="fill:url(#linearGradient853);fill-opacity:1;stroke-width:1.20834" />
  </g>
</svg>
