<?xml version="1.0" encoding="UTF-8" standalone="no"?>
<svg
   xmlns:dc="http://purl.org/dc/elements/1.1/"
   xmlns:cc="http://creativecommons.org/ns#"
   xmlns:rdf="http://www.w3.org/1999/02/22-rdf-syntax-ns#"
   xmlns:svg="http://www.w3.org/2000/svg"
   xmlns="http://www.w3.org/2000/svg"
   xmlns:xlink="http://www.w3.org/1999/xlink"
   xmlns:sodipodi="http://sodipodi.sourceforge.net/DTD/sodipodi-0.dtd"
   xmlns:inkscape="http://www.inkscape.org/namespaces/inkscape"
   width="1000"
   height="650.198"
   viewBox="0 0 264.58334 172.03156"
   version="1.1"
   id="svg16"
   inkscape:version="1.0 (4035a4fb49, 2020-05-01)"
   sodipodi:docname="logoA.svg">
  <defs
     id="defs10">
    <linearGradient
       id="linearGradient4745"
       inkscape:collect="always">
      <stop
         id="stop4741"
         offset="0"
         style="stop-color:#0c2bc2;stop-opacity:1" />
      <stop
         id="stop4743"
         offset="1"
         style="stop-color:#ff0032;stop-opacity:1" />
    </linearGradient>
    <linearGradient
       inkscape:collect="always"
       id="linearGradient4685">
      <stop
         style="stop-color:#000000;stop-opacity:1;"
         offset="0"
         id="stop4681" />
      <stop
         style="stop-color:#000001;stop-opacity:1"
         offset="1"
         id="stop4683" />
    </linearGradient>
    <linearGradient
       id="linearGradient1719"
       inkscape:collect="always">
      <stop
         style="stop-color:#ff00b2;stop-opacity:1"
         offset="0"
         id="stop1721" />
      <stop
         id="stop1717"
         offset="1"
         style="stop-color:#0000d4;stop-opacity:1" />
    </linearGradient>
    <linearGradient
       inkscape:collect="always"
       id="linearGradient1704">
      <stop
         style="stop-color:#000100;stop-opacity:1"
         offset="0"
         id="stop1700" />
      <stop
         style="stop-color:#0000d4;stop-opacity:1"
         offset="1"
         id="stop1702" />
    </linearGradient>
    <linearGradient
       inkscape:collect="always"
       id="linearGradient1692">
      <stop
         style="stop-color:#0000be;stop-opacity:1"
         offset="0"
         id="stop1688" />
      <stop
         style="stop-color:#ff00ae;stop-opacity:1"
         offset="1"
         id="stop1690" />
    </linearGradient>
    <linearGradient
       inkscape:collect="always"
       id="linearGradient851">
      <stop
         style="stop-color:#550044;stop-opacity:1;"
         offset="0"
         id="stop847" />
      <stop
         style="stop-color:#0055d4;stop-opacity:1"
         offset="1"
         id="stop849" />
    </linearGradient>
    <linearGradient
       inkscape:collect="always"
       xlink:href="#linearGradient851"
       id="linearGradient857"
       x1="-0.38777715"
       y1="10.276094"
       x2="508.37582"
       y2="10.276094"
       gradientUnits="userSpaceOnUse" />
    <linearGradient
       inkscape:collect="always"
       xlink:href="#linearGradient1704"
       id="linearGradient1278"
       x1="-670.88202"
       y1="-348.23944"
       x2="-620.83044"
       y2="-465.4437"
       gradientUnits="userSpaceOnUse"
       gradientTransform="scale(3.7795276)" />
    <linearGradient
       inkscape:collect="always"
       xlink:href="#linearGradient1692"
       id="linearGradient1615"
       x1="-646.3454"
       y1="-498.38492"
       x2="-571.67029"
       y2="-335.76389"
       gradientUnits="userSpaceOnUse" />
    <linearGradient
       inkscape:collect="always"
       xlink:href="#linearGradient1719"
       id="linearGradient1713"
       gradientUnits="userSpaceOnUse"
       gradientTransform="scale(3.7795276)"
       x1="-583.039"
       y1="-449.97131"
       x2="-704.6228"
       y2="-366.34219" />
    <linearGradient
       inkscape:collect="always"
       xlink:href="#linearGradient1692"
       id="linearGradient4634"
       x1="53.45002"
       y1="64.179695"
       x2="166.37917"
       y2="64.179695"
       gradientUnits="userSpaceOnUse"
       gradientTransform="translate(91.43695,-136.36702)" />
    <linearGradient
       inkscape:collect="always"
       xlink:href="#linearGradient4685"
       id="linearGradient4687"
       x1="-36.124584"
       y1="-12.594575"
       x2="163.13974"
       y2="159.798"
       gradientUnits="userSpaceOnUse"
       gradientTransform="translate(2.8938802,-3.720703)" />
    <linearGradient
       gradientUnits="userSpaceOnUse"
       y2="107.64114"
       x2="232.09972"
       y1="3.7976933"
       x1="-88.51226"
       id="linearGradient862"
       xlink:href="#linearGradient4745"
       inkscape:collect="always" />
  </defs>
  <sodipodi:namedview
     id="base"
     pagecolor="#ffffff"
     bordercolor="#666666"
     borderopacity="1.0"
     inkscape:pageopacity="0.0"
     inkscape:pageshadow="2"
     inkscape:zoom="0.47645838"
     inkscape:cx="202.06954"
     inkscape:cy="247.25337"
     inkscape:document-units="mm"
     inkscape:current-layer="layer1"
     inkscape:document-rotation="0"
     showgrid="false"
     units="px"
     inkscape:window-width="1856"
     inkscape:window-height="1057"
     inkscape:window-x="56"
     inkscape:window-y="-8"
     inkscape:window-maximized="1" />
  <metadata
     id="metadata13">
    <rdf:RDF>
      <cc:Work
         rdf:about="">
        <dc:format>image/svg+xml</dc:format>
        <dc:type
           rdf:resource="http://purl.org/dc/dcmitype/StillImage" />
        <dc:title />
      </cc:Work>
    </rdf:RDF>
  </metadata>
  <g
     inkscape:label="Calque 1"
     inkscape:groupmode="layer"
     id="layer1">
    <path
       style="fill:url(#linearGradient862);fill-opacity:1;stroke:none;stroke-width:2.95633;stroke-miterlimit:4;stroke-dasharray:none;stroke-opacity:1"
       d="M 28.978629,156.11059 47.475559,141.18669 80.341921,114.66698 4.0350561,38.133485 c 2.5570714,0.873322 5.3593815,0.855941 7.9379459,-0.04926 6.213877,-2.182506 9.532373,-8.845135 7.411799,-14.880951 -0.941222,-2.680313 -2.863618,-4.911076 -5.401695,-6.268171 l 101.608164,0.348458 -14.15772,-14.1980342 30.93051,2.6735228 11.58803,11.6228244 56.71152,0.194042 9.9e-4,-4.78e-4 3.55866,0.01229 0.90074,-0.727297 31.09806,0.107662 -18.49688,14.923879 -32.86587,26.520969 76.30632,76.532149 c -2.55704,-0.87333 -5.35937,-0.85596 -7.93791,0.0493 -6.21387,2.18251 -9.53231,8.84515 -7.41178,14.88096 0.94124,2.6803 2.86362,4.91104 5.40165,6.26814 l -101.60675,-0.34895 14.15639,14.1985 -30.93052,-2.67353 -11.58804,-11.62281 -56.711491,-0.19405 -9.91e-4,4.9e-4 -3.558669,-0.0125 -0.900733,0.72728 z M 3.1900286,28.680993 c -0.8816593,-2.510327 0.4986274,-5.28114 3.0827934,-6.188916 2.5846219,-0.90844 5.39521,0.390759 6.277058,2.901588 l 0.002,0.0038 C 13.430833,27.907636 12.049595,30.67623 9.4662516,31.582868 6.8819195,32.490377 4.0722132,31.191077 3.190554,28.680757 Z m 27.5855964,7.924057 65.228496,65.42321 27.354329,-22.073673 2.89777,0.544802 13.38651,-10.801342 -2.89913,-0.544306 16.93617,-13.665756 -18.46951,-18.524349 z m 57.963552,99.36935 12.889763,0.0437 -5.771464,-5.78864 z m 22.781963,-18.38392 18.46998,18.52571 104.43412,0.35725 -65.22844,-65.423216 -27.35436,22.073654 -2.89776,-0.544796 -13.3865,10.801338 2.89913,0.54431 z m 52.05081,-80.530376 5.77149,5.788648 7.1183,-5.744698 z M 252.64952,147.6807 c -0.87894,-2.51007 0.50222,-5.27866 3.08567,-6.18529 2.58433,-0.90754 5.39401,0.39172 6.27569,2.90206 0.88166,2.51034 -0.49856,5.28117 -3.08283,6.18893 -2.58464,0.90846 -5.39524,-0.39074 -6.2771,-2.90162 z"
       id="rect886-4-3-3-0-3-5-6-5-2"
       inkscape:connector-curvature="0"
       sodipodi:nodetypes="cccccccccccccccccccccccccccccccccccccccccccccccccccccccccccccccccccccc" />
  </g>
</svg>
