<?xml version="1.0" encoding="UTF-8" standalone="no"?>
<svg
   xmlns:dc="http://purl.org/dc/elements/1.1/"
   xmlns:cc="http://creativecommons.org/ns#"
   xmlns:rdf="http://www.w3.org/1999/02/22-rdf-syntax-ns#"
   xmlns:svg="http://www.w3.org/2000/svg"
   xmlns="http://www.w3.org/2000/svg"
   xmlns:xlink="http://www.w3.org/1999/xlink"
   xmlns:sodipodi="http://sodipodi.sourceforge.net/DTD/sodipodi-0.dtd"
   xmlns:inkscape="http://www.inkscape.org/namespaces/inkscape"
   width="500"
   height="500"
   viewBox="0 0 132.29167 132.29167"
   version="1.1"
   id="svg16"
   inkscape:version="0.92.5 (2060ec1f9f, 2020-04-08)"
   sodipodi:docname="logoA.svg">
  <defs
     id="defs10">
    <linearGradient
       id="linearGradient4745"
       inkscape:collect="always">
      <stop
         id="stop4741"
         offset="0"
         style="stop-color:#0c2bc2;stop-opacity:1" />
      <stop
         id="stop4743"
         offset="1"
         style="stop-color:#ff0032;stop-opacity:1" />
    </linearGradient>
    <linearGradient
       inkscape:collect="always"
       id="linearGradient4685">
      <stop
         style="stop-color:#000000;stop-opacity:1;"
         offset="0"
         id="stop4681" />
      <stop
         style="stop-color:#000001;stop-opacity:1"
         offset="1"
         id="stop4683" />
    </linearGradient>
    <linearGradient
       id="linearGradient1719"
       inkscape:collect="always">
      <stop
         style="stop-color:#ff00b2;stop-opacity:1"
         offset="0"
         id="stop1721" />
      <stop
         id="stop1717"
         offset="1"
         style="stop-color:#0000d4;stop-opacity:1" />
    </linearGradient>
    <linearGradient
       inkscape:collect="always"
       id="linearGradient1704">
      <stop
         style="stop-color:#000100;stop-opacity:1"
         offset="0"
         id="stop1700" />
      <stop
         style="stop-color:#0000d4;stop-opacity:1"
         offset="1"
         id="stop1702" />
    </linearGradient>
    <linearGradient
       inkscape:collect="always"
       id="linearGradient1692">
      <stop
         style="stop-color:#0000be;stop-opacity:1"
         offset="0"
         id="stop1688" />
      <stop
         style="stop-color:#ff00ae;stop-opacity:1"
         offset="1"
         id="stop1690" />
    </linearGradient>
    <linearGradient
       inkscape:collect="always"
       id="linearGradient851">
      <stop
         style="stop-color:#550044;stop-opacity:1;"
         offset="0"
         id="stop847" />
      <stop
         style="stop-color:#0055d4;stop-opacity:1"
         offset="1"
         id="stop849" />
    </linearGradient>
    <linearGradient
       inkscape:collect="always"
       xlink:href="#linearGradient851"
       id="linearGradient857"
       x1="-0.38777715"
       y1="10.276094"
       x2="508.37582"
       y2="10.276094"
       gradientUnits="userSpaceOnUse" />
    <linearGradient
       inkscape:collect="always"
       xlink:href="#linearGradient1704"
       id="linearGradient1278"
       x1="-670.88202"
       y1="-348.23944"
       x2="-620.83044"
       y2="-465.4437"
       gradientUnits="userSpaceOnUse"
       gradientTransform="scale(3.7795276)" />
    <linearGradient
       inkscape:collect="always"
       xlink:href="#linearGradient1692"
       id="linearGradient1615"
       x1="-646.3454"
       y1="-498.38492"
       x2="-571.67029"
       y2="-335.76389"
       gradientUnits="userSpaceOnUse" />
    <linearGradient
       inkscape:collect="always"
       xlink:href="#linearGradient1719"
       id="linearGradient1713"
       gradientUnits="userSpaceOnUse"
       gradientTransform="scale(3.7795276)"
       x1="-583.039"
       y1="-449.97131"
       x2="-704.6228"
       y2="-366.34219" />
    <linearGradient
       inkscape:collect="always"
       xlink:href="#linearGradient1692"
       id="linearGradient4634"
       x1="53.45002"
       y1="64.179695"
       x2="166.37917"
       y2="64.179695"
       gradientUnits="userSpaceOnUse"
       gradientTransform="translate(91.43695,-136.36702)" />
    <linearGradient
       inkscape:collect="always"
       xlink:href="#linearGradient4685"
       id="linearGradient4687"
       x1="-36.124584"
       y1="-12.594575"
       x2="163.13974"
       y2="159.798"
       gradientUnits="userSpaceOnUse"
       gradientTransform="translate(2.8938802,-3.720703)" />
    <linearGradient
       inkscape:collect="always"
       xlink:href="#linearGradient4685"
       id="linearGradient4723"
       gradientUnits="userSpaceOnUse"
       gradientTransform="translate(7.8593052,-11.643914)"
       x1="-36.124584"
       y1="-12.594575"
       x2="163.13974"
       y2="159.798" />
    <linearGradient
       inkscape:collect="always"
       xlink:href="#linearGradient4745"
       id="linearGradient4739"
       x1="115.56159"
       y1="99.82235"
       x2="26.194454"
       y2="40.64735"
       gradientUnits="userSpaceOnUse"
       gradientTransform="translate(-1.5875,-1.0583333)" />
  </defs>
  <sodipodi:namedview
     id="base"
     pagecolor="#ffffff"
     bordercolor="#666666"
     borderopacity="1.0"
     inkscape:pageopacity="0.0"
     inkscape:pageshadow="2"
     inkscape:zoom="0.45254834"
     inkscape:cx="202.06954"
     inkscape:cy="247.25337"
     inkscape:document-units="mm"
     inkscape:current-layer="layer1"
     inkscape:document-rotation="0"
     showgrid="false"
     units="px"
     inkscape:window-width="1298"
     inkscape:window-height="704"
     inkscape:window-x="68"
     inkscape:window-y="27"
     inkscape:window-maximized="1" />
  <metadata
     id="metadata13">
    <rdf:RDF>
      <cc:Work
         rdf:about="">
        <dc:format>image/svg+xml</dc:format>
        <dc:type
           rdf:resource="http://purl.org/dc/dcmitype/StillImage" />
        <dc:title />
      </cc:Work>
    </rdf:RDF>
  </metadata>
  <g
     inkscape:label="Calque 1"
     inkscape:groupmode="layer"
     id="layer1">
    <rect
       id="rect3797"
       width="199.26433"
       height="172.39258"
       x="-28.265282"
       y="-24.238501"
       style="fill:url(#linearGradient4723);fill-opacity:1;stroke-width:0.31761283" />
    <path
       style="fill:none;fill-opacity:1;stroke:url(#linearGradient4739);stroke-width:1.05597198;stroke-miterlimit:4;stroke-dasharray:none;stroke-opacity:1"
       d="M 29.96319,89.300985 36.570092,83.970334 48.309599,74.497783 21.053618,47.160854 c 0.913361,0.311941 1.914314,0.305733 2.835349,-0.0176 2.219528,-0.779568 3.404859,-3.159386 2.647413,-5.315313 -0.336193,-0.957379 -1.022852,-1.754183 -1.929426,-2.238923 l 36.293331,0.124466 -5.056986,-5.071383 11.048042,0.954953 4.139118,4.151546 20.256735,0.06931 4.88e-4,-1.71e-4 1.271111,0.0044 0.321734,-0.259783 11.107893,0.03846 -6.606887,5.330647 -11.739333,9.472987 27.25579,27.336443 c -0.91335,-0.311938 -1.91431,-0.305734 -2.83534,0.0176 -2.21952,0.779571 -3.40484,3.159393 -2.64741,5.315316 0.3362,0.957373 1.02285,1.754173 1.92941,2.238912 l -36.292817,-0.124643 5.056502,5.07155 -11.048041,-0.954953 -4.13912,-4.151545 -20.256729,-0.06931 -4.9e-4,1.73e-4 -1.271117,-0.0044 -0.321731,0.259778 z M 20.751784,43.784528 c -0.314918,-0.896662 0.178104,-1.886366 1.101143,-2.210614 0.923197,-0.324485 1.927109,0.139575 2.242096,1.036416 l 5.36e-4,0.0014 c 0.313952,0.89657 -0.179413,1.885481 -1.102154,2.209322 -0.923101,0.324165 -1.926697,-0.139931 -2.241615,-1.03659 z m 9.853276,2.830386 23.298904,23.368456 9.770674,-7.884474 1.035051,0.194596 4.781514,-3.858121 -1.035539,-0.19442 6.049414,-4.881259 -6.597106,-6.616695 z m 20.703946,35.493645 4.604087,0.01566 -2.061509,-2.067642 z m 8.13747,-6.566532 6.597278,6.617183 37.302726,0.127598 -23.298887,-23.368454 -9.770675,7.884468 -1.03505,-0.194595 -4.781514,3.858122 1.035538,0.19442 z m 18.591986,-28.764573 2.06151,2.067642 2.542581,-2.051943 z M 109.856,86.289922 c -0.31395,-0.896568 0.17938,-1.88548 1.10216,-2.209316 0.92309,-0.324166 1.92669,0.139918 2.24161,1.036588 0.31492,0.896663 -0.17808,1.886373 -1.10115,2.210614 -0.92321,0.324495 -1.92712,-0.139567 -2.24211,-1.036426 z"
       id="rect886-4-3-3-0-3-5-6-5-2"
       inkscape:connector-curvature="0"
       sodipodi:nodetypes="cccccccccccccccccccccccccccccccccccccccccccccccccccccccccccccccccccccc" />
  </g>
</svg>
