<?xml version="1.0" encoding="UTF-8" standalone="no"?>
<svg
   xmlns:dc="http://purl.org/dc/elements/1.1/"
   xmlns:cc="http://creativecommons.org/ns#"
   xmlns:rdf="http://www.w3.org/1999/02/22-rdf-syntax-ns#"
   xmlns:svg="http://www.w3.org/2000/svg"
   xmlns="http://www.w3.org/2000/svg"
   xmlns:xlink="http://www.w3.org/1999/xlink"
   xmlns:sodipodi="http://sodipodi.sourceforge.net/DTD/sodipodi-0.dtd"
   xmlns:inkscape="http://www.inkscape.org/namespaces/inkscape"
   inkscape:version="1.0 (4035a4fb49, 2020-05-01)"
   sodipodi:docname="UPEC.svg"
   id="svg130"
   xml:space="preserve"
   enable-background="new 0 0 443 188"
   viewBox="0 0 443 188"
   height="188px"
   width="443px"
   y="0px"
   x="0px"
   version="1.1"><metadata
   id="metadata134"><rdf:RDF><cc:Work
       rdf:about=""><dc:format>image/svg+xml</dc:format><dc:type
         rdf:resource="http://purl.org/dc/dcmitype/StillImage" /></cc:Work></rdf:RDF></metadata><sodipodi:namedview
   inkscape:document-rotation="0"
   inkscape:current-layer="svg130"
   inkscape:window-maximized="1"
   inkscape:window-y="-8"
   inkscape:window-x="54"
   inkscape:cy="54.622222"
   inkscape:cx="202.07664"
   inkscape:zoom="1.2160056"
   showgrid="false"
   id="namedview132"
   inkscape:window-height="1057"
   inkscape:window-width="1858"
   inkscape:pageshadow="2"
   inkscape:pageopacity="0"
   guidetolerance="10"
   gridtolerance="10"
   objecttolerance="10"
   borderopacity="1"
   bordercolor="#666666"
   pagecolor="#ffffff" />
<defs
   id="defs2"><linearGradient
   id="linearGradient4650"
   inkscape:collect="always"><stop
     id="stop4646"
     offset="0"
     style="stop-color:#ff009b;stop-opacity:0.97254902" /><stop
     id="stop4648"
     offset="1"
     style="stop-color:#00f0ff;stop-opacity:0.94117647" /></linearGradient>
<linearGradient
   gradientTransform="matrix(0.87671233,0,0,0.73745174,31.313425,22.497804)"
   gradientUnits="userSpaceOnUse"
   y2="96.93889"
   x2="469.58001"
   y1="96.93889"
   x1="-33.471111"
   id="linearGradient4652"
   xlink:href="#linearGradient4650"
   inkscape:collect="always" /></defs>
<rect
   rx="83.511154"
   ry="94.01445"
   y="-0.028889321"
   x="1.9688888"
   height="188.0289"
   width="441.03113"
   id="rect4644"
   style="opacity:1;fill:url(#linearGradient4652);fill-opacity:1;stroke:none;stroke-width:4.82443666;stroke-miterlimit:4;stroke-dasharray:none;stroke-opacity:1" /><path
   style="stroke-width:0.81786126"
   inkscape:connector-curvature="0"
   id="path4"
   d="m 259.05393,83.117128 v 5.68904 c 0,1.84673 0.39258,2.74311 1.72324,2.74311 1.14091,0 1.72487,-0.67882 1.72487,-2.49857 v -5.93358 h 2.28101 v 6.2321 c 0,0.86939 -0.0147,3.82923 -4.06068,3.82923 -2.41678,0 -4.2905,-1.14092 -4.2905,-3.82923 v -6.2321 z" />
<path
   style="stroke-width:0.81786126"
   inkscape:connector-curvature="0"
   id="path6"
   d="m 267.60631,83.117128 h 2.18532 l 4.16946,5.89269 h 0.027 v -5.89269 h 1.96777 v 9.81679 h -2.17224 l -4.18172,-5.89269 h -0.027 v 5.89269 h -1.96777 v -9.81679 z" />
<path
   style="stroke-width:0.81786126"
   inkscape:connector-curvature="0"
   id="path8"
   d="m 278.77993,83.117128 h 2.61961 v 9.81679 h -2.61961 z" />
<path
   style="stroke-width:0.81786126"
   inkscape:connector-curvature="0"
   id="path10"
   d="m 283.28634,83.117128 h 2.784 l 2.57954,7.15547 h 0.027 l 2.52555,-7.15547 h 1.73796 l -3.47591,9.81679 h -2.62125 z" />
<path
   style="stroke-width:0.81786126"
   inkscape:connector-curvature="0"
   id="path12"
   d="m 294.7454,83.117128 h 6.70728 v 1.62918 h -4.08767 v 2.38979 h 3.35486 v 1.46643 h -3.35486 v 2.70221 h 4.41318 v 1.62918 h -7.03361 v -9.81679 z" />
<path
   style="stroke-width:0.81786126"
   inkscape:connector-curvature="0"
   id="path14"
   d="m 304.04448,83.117128 h 4.67081 c 1.22188,0 2.67522,0.69273 2.67522,2.45767 0,1.1949 -0.77452,2.29492 -1.83365,2.79709 l 3.15041,4.56203 h -3.16267 l -2.11826,-3.9241 h -0.92337 v 3.9241 h -2.45849 z m 2.45767,4.42627 h 0.86939 c 0.90864,0 1.39772,-0.96426 1.39772,-1.68398 0,-0.66492 -0.29852,-1.11311 -1.46642,-1.11311 h -0.80069 z" />
<path
   style="stroke-width:0.81786126"
   inkscape:connector-curvature="0"
   id="path16"
   d="m 314.0641,90.964508 c 0.84158,0.33941 1.75104,0.58395 2.66132,0.58395 0.69191,0 1.62918,-0.18974 1.62918,-1.07303 0,-1.58829 -4.37229,-1.75186 -4.37229,-4.84747 0,-1.96859 1.76495,-2.75619 3.489,-2.75619 0.97734,0 1.9555,0.12186 2.91976,0.29852 v 1.85982 c -0.8015,-0.28544 -1.65617,-0.52916 -2.51247,-0.52916 -0.51607,0 -1.27668,0.20365 -1.27668,0.84158 0,1.48033 4.53504,1.67007 4.53504,4.87445 0,0.99125 -0.51607,2.95984 -4.01897,2.95984 -1.26196,0 -2.33499,-0.12186 -3.05389,-0.24454 z" />
<path
   style="stroke-width:0.81786126"
   inkscape:connector-curvature="0"
   id="path18"
   d="m 323.16035,83.117128 h 2.62125 v 9.81679 h -2.62125 z" />
<path
   style="stroke-width:0.81786126"
   inkscape:connector-curvature="0"
   id="path20"
   d="m 331.14349,84.759398 h -3.55769 v -1.64309 h 9.73418 v 1.64309 h -3.55769 v 8.1737 h -2.61961 v -8.1737 z" />
<path
   style="stroke-width:0.81786126"
   inkscape:connector-curvature="0"
   id="path22"
   d="m 339.12582,83.117128 h 6.70728 v 1.62918 h -4.08603 v 2.38979 h 3.35323 v 1.46643 h -3.35323 v 2.70221 h 4.41236 v 1.62918 h -7.03361 z m 3.36713,-2.56645 h 2.03648 l -1.95551,1.95551 h -1.56048 z" />
<path
   style="stroke-width:0.81786126"
   inkscape:connector-curvature="0"
   id="path24"
   d="m 256.43269,102.58141 h 4.38619 c 1.83201,0 2.93285,0.69273 2.93285,2.62043 0,1.9555 -1.23661,3.39412 -3.42193,3.39412 h -1.43944 v 3.80142 h -2.45849 v -9.81597 z m 2.45849,4.54894 c 0.90864,0 2.2393,-0.10877 2.2393,-1.72405 0,-0.89637 -0.66492,-1.19489 -1.46642,-1.19489 -0.25681,0 -0.51607,0.0409 -0.77288,0.0949 z" />
<path
   style="stroke-width:0.81786126"
   inkscape:connector-curvature="0"
   id="path26"
   d="m 267.47054,102.58141 h 2.62125 l 3.76052,9.81679 h -2.63433 l -0.95035,-2.49857 h -3.8415 l -0.96507,2.49857 h -1.75104 z m 2.19923,5.77083 -1.33066,-3.47591 -1.33066,3.47591 z" />
<path
   style="stroke-width:0.81786126"
   inkscape:connector-curvature="0"
   id="path28"
   d="m 275.71131,102.58141 h 4.67081 c 1.22188,0 2.67522,0.69273 2.67522,2.45767 0,1.1949 -0.77451,2.29492 -1.83364,2.79709 l 3.1504,4.56203 h -3.16267 l -2.11826,-3.9241 h -0.92337 v 3.9241 h -2.45849 z m 2.45849,4.42708 h 0.86939 c 0.90864,0 1.39773,-0.96425 1.39773,-1.68397 0,-0.66492 -0.29852,-1.11311 -1.46643,-1.11311 h -0.80069 z" />
<path
   style="stroke-width:0.81786126"
   inkscape:connector-curvature="0"
   id="path30"
   d="m 286.21919,102.58141 h 2.62125 v 9.81679 h -2.62125 z" />
<path
   style="stroke-width:0.81786126"
   inkscape:connector-curvature="0"
   id="path32"
   d="m 291.17543,110.42961 c 0.84158,0.33941 1.75104,0.58395 2.66132,0.58395 0.69191,0 1.62918,-0.18974 1.62918,-1.07303 0,-1.58829 -4.37228,-1.75186 -4.37228,-4.84747 0,-1.96859 1.76494,-2.75619 3.48899,-2.75619 0.97735,0 1.95551,0.12186 2.91977,0.29852 v 1.85982 c -0.80151,-0.28544 -1.65617,-0.52916 -2.51247,-0.52916 -0.51607,0 -1.27668,0.20365 -1.27668,0.84158 0,1.48033 4.53504,1.67007 4.53504,4.87445 0,0.99125 -0.51607,2.95984 -4.01897,2.95984 -1.26196,0 -2.335,-0.12186 -3.0539,-0.24454 z" />
<path
   style="stroke-width:0.81786126"
   inkscape:connector-curvature="0"
   id="path34"
   d="m 299.61903,107.41579 h 2.94594 v 1.46642 h -2.94594 z" />
<path
   style="stroke-width:0.81786126"
   inkscape:connector-curvature="0"
   id="path36"
   d="m 304.73721,102.58141 h 6.70728 v 1.62918 h -4.08604 v 2.38979 h 3.35323 v 1.46643 h -3.35323 v 2.70221 h 4.41236 v 1.62918 h -7.0336 z" />
<path
   style="stroke-width:0.81786126"
   inkscape:connector-curvature="0"
   id="path38"
   d="m 313.54885,110.42961 c 0.84157,0.33941 1.75104,0.58395 2.66132,0.58395 0.69191,0 1.62918,-0.18974 1.62918,-1.07303 0,-1.58829 -4.37229,-1.75186 -4.37229,-4.84747 0,-1.96859 1.76494,-2.75619 3.489,-2.75619 0.97734,0 1.9555,0.12186 2.91976,0.29852 v 1.85982 c -0.8015,-0.28544 -1.65617,-0.52916 -2.51247,-0.52916 -0.51607,0 -1.27668,0.20365 -1.27668,0.84158 0,1.48033 4.53504,1.67007 4.53504,4.87445 0,0.99125 -0.51607,2.95984 -4.01897,2.95984 -1.26196,0 -2.33499,-0.12186 -3.05389,-0.24454 z" />
<path
   style="stroke-width:0.81786126"
   inkscape:connector-curvature="0"
   id="path40"
   d="m 325.18374,104.22449 h -3.5577 v -1.64308 h 9.73419 v 1.64308 h -3.5577 v 8.17371 h -2.61961 v -8.17371 z" />
<path
   style="stroke-width:0.81786126"
   inkscape:connector-curvature="0"
   id="path42"
   d="m 346.53973,104.55082 c -0.93645,-0.35332 -1.91379,-0.58395 -2.91813,-0.58395 -2.3767,0 -3.12259,1.69706 -3.12259,3.462 0,2.19923 1.15318,3.58469 3.39412,3.58469 0.93645,0 1.95551,-0.29852 2.81017,-0.70581 v 1.80583 c -1.1131,0.36641 -2.308,0.52916 -3.66565,0.52916 -3.18966,0 -5.32264,-1.88762 -5.32264,-5.14598 0,-3.25836 2.13216,-5.15989 5.32264,-5.15989 1.30367,0 2.4315,0.0949 3.5029,0.32551 v 1.88844 z" />
<path
   style="stroke-width:0.81786126"
   inkscape:connector-curvature="0"
   id="path44"
   d="m 348.76595,102.58141 h 4.67081 c 1.22188,0 2.6744,0.69273 2.6744,2.45767 0,1.1949 -0.77288,2.29492 -1.83201,2.79709 l 3.1504,4.56203 h -3.1643 l -2.11826,-3.9241 h -0.92337 v 3.9241 h -2.45685 v -9.81679 z m 2.45686,4.42708 h 0.86938 c 0.91028,0 1.39936,-0.96425 1.39936,-1.68397 0,-0.66492 -0.29852,-1.11311 -1.46642,-1.11311 h -0.80151 v 2.79708 z" />
<path
   style="stroke-width:0.81786126"
   inkscape:connector-curvature="0"
   id="path46"
   d="m 359.27383,102.58141 h 6.70728 v 1.62918 h -4.08767 v 2.38979 h 3.35487 v 1.46643 h -3.35487 v 2.70221 h 4.41318 v 1.62918 h -7.03361 v -9.81679 z m 3.36714,-2.56563 h 2.03647 l -1.95551,1.95551 h -1.56211 z" />
<path
   style="stroke-width:0.81786126"
   inkscape:connector-curvature="0"
   id="path48"
   d="m 371.11156,104.22449 h -3.5577 v -1.64308 h 9.73582 v 1.64308 h -3.5577 v 8.17371 h -2.62124 v -8.17371 z" />
<path
   style="stroke-width:0.81786126"
   inkscape:connector-curvature="0"
   id="path50"
   d="m 379.09552,102.58141 h 6.70728 v 1.62918 h -4.08767 v 2.38979 h 3.35486 v 1.46643 h -3.35486 v 2.70221 h 4.41318 v 1.62918 h -7.03361 v -9.81679 z" />
<path
   style="stroke-width:0.81786126"
   inkscape:connector-curvature="0"
   id="path52"
   d="m 388.39378,102.58141 h 2.62125 v 9.81679 h -2.62125 z" />
<path
   style="stroke-width:0.81786126"
   inkscape:connector-curvature="0"
   id="path54"
   d="m 393.83828,102.58141 h 2.62125 v 8.18761 h 4.41236 v 1.62918 h -7.03361 z" />
<path
   style="stroke-width:0.81786126"
   inkscape:connector-curvature="0"
   id="path56"
   d="m 255.49624,122.04651 h 2.78236 l 2.57953,7.15547 h 0.027 l 2.52556,-7.15547 h 1.73795 l -3.47591,9.81679 h -2.6196 z" />
<path
   style="stroke-width:0.81786126"
   inkscape:connector-curvature="0"
   id="path58"
   d="m 268.74641,122.04651 h 2.62124 l 3.76053,9.81679 h -2.63433 l -0.95036,-2.49857 H 267.702 l -0.96508,2.49857 h -1.75104 z m 2.20004,5.77083 -1.33066,-3.47591 -1.33066,3.47591 z" />
<path
   style="stroke-width:0.81786126"
   inkscape:connector-curvature="0"
   id="path60"
   d="m 276.98718,122.04651 h 2.61961 v 8.18761 h 4.41318 v 1.62918 h -7.03361 v -9.81679 z" />
<path
   style="stroke-width:0.81786126"
   inkscape:connector-curvature="0"
   id="path62"
   d="m 291.14681,122.04651 h 5.34963 c 1.35765,0 4.14165,0.82849 4.14165,4.73869 0,3.44892 -2.07819,5.0781 -4.61683,5.0781 h -4.87527 v -9.81679 z m 2.62124,8.09274 c 0.44737,0.054 0.85467,0.0949 1.26196,0.0949 2.25403,0 2.82408,-1.71097 2.82408,-3.35405 0,-1.37156 -0.43429,-3.20438 -2.75538,-3.20438 h -1.33066 v 6.46356 z" />
<path
   style="stroke-width:0.81786126"
   inkscape:connector-curvature="0"
   id="path64"
   d="m 302.80951,122.04651 h 6.70728 v 1.62918 h -4.08604 v 2.38979 h 3.35324 v 1.46642 h -3.35324 v 2.70222 h 4.41237 v 1.62918 h -7.03361 z" />
<path
   style="stroke-width:0.81786126"
   inkscape:connector-curvature="0"
   id="path66"
   d="m 317.30855,122.04651 h 3.38186 l 2.04956,6.25909 h 0.027 l 2.09127,-6.25909 h 2.93285 v 9.81679 h -2.37507 v -6.87004 h -0.027 l -2.10517,6.21902 h -1.90071 l -2.07655,-6.39486 h -0.027 v 7.04669 h -1.96941 v -9.8176 z" />
<path
   style="stroke-width:0.81786126"
   inkscape:connector-curvature="0"
   id="path68"
   d="m 333.41061,122.04651 h 2.62124 l 3.76053,9.81679 h -2.63433 l -0.95036,-2.49857 h -3.84149 l -0.96508,2.49857 h -1.75104 z m 2.19922,5.77083 -1.33066,-3.47591 -1.33066,3.47591 z" />
<path
   style="stroke-width:0.81786126"
   inkscape:connector-curvature="0"
   id="path70"
   d="m 341.65138,122.04651 h 4.6708 c 1.22189,0 2.67441,0.69273 2.67441,2.45767 0,1.1949 -0.77288,2.29492 -1.83201,2.79709 l 3.1504,4.56203 h -3.16431 l -2.11826,-3.9241 h -0.92336 v 3.9241 h -2.45686 v -9.81679 z m 2.45685,4.42626 h 0.86939 c 0.91028,0 1.39936,-0.96426 1.39936,-1.68397 0,-0.66492 -0.29852,-1.11311 -1.46643,-1.11311 h -0.8015 v 2.79708 z" />
<path
   style="stroke-width:0.81786126"
   inkscape:connector-curvature="0"
   id="path72"
   d="m 352.15926,122.04651 h 2.18696 l 4.16782,5.89269 h 0.027 v -5.89269 h 1.96941 v 9.81679 h -2.17224 l -4.18173,-5.89269 h -0.027 v 5.89269 h -1.96941 v -9.81679 z" />
<path
   style="stroke-width:0.81786126"
   inkscape:connector-curvature="0"
   id="path74"
   d="m 363.33288,122.04651 h 6.70728 v 1.62918 h -4.08604 v 2.38979 h 3.35323 v 1.46642 h -3.35323 v 2.70222 h 4.41236 v 1.62918 h -7.0336 z" />
<g
   transform="matrix(0.81786124,0,0,0.81786124,38.393333,2.7172798)"
   id="g116">
	<g
   id="g114">
		<path
   inkscape:connector-curvature="0"
   id="path76"
   d="m 0.95,182.316 c 0,-2.348 1.018,-4.619 2.643,-6.244 1.449,-1.449 3.407,-2.389 5.541,-2.389 2.506,0 4.189,1.273 5.031,2.957 l -0.881,0.469 c -0.881,-1.527 -2.056,-2.506 -4.209,-2.506 -1.821,0 -3.465,0.803 -4.679,2.018 -1.468,1.467 -2.388,3.563 -2.388,5.656 0,2.879 1.958,4.66 4.64,4.66 2.036,0 3.387,-0.803 4.64,-2.057 l 0.685,0.627 c -1.253,1.313 -2.897,2.369 -5.423,2.369 -3.036,0.001 -5.6,-2.093 -5.6,-5.56 z" />
		<path
   inkscape:connector-curvature="0"
   id="path78"
   d="m 25.748,181.828 c 0,1.605 -0.705,3.133 -1.82,4.248 -1.077,1.076 -2.545,1.781 -4.111,1.781 -2.643,0 -4.444,-1.859 -4.444,-4.424 0,-1.605 0.705,-3.133 1.82,-4.248 1.077,-1.078 2.545,-1.781 4.111,-1.781 2.643,0 4.444,1.86 4.444,4.424 z m -2.604,3.699 c 0.959,-0.959 1.566,-2.27 1.566,-3.66 0,-2.252 -1.429,-3.563 -3.504,-3.563 -1.214,0 -2.369,0.566 -3.23,1.428 -0.959,0.959 -1.566,2.271 -1.566,3.662 0,2.25 1.429,3.563 3.504,3.563 1.213,0 2.369,-0.568 3.23,-1.43 z" />
		<path
   inkscape:connector-curvature="0"
   id="path80"
   d="m 30.891,177.639 h 0.959 l -0.49,1.859 c 0.979,-1.174 2.095,-2.094 3.778,-2.094 1.978,0 3.27,1.252 3.27,3.17 0,0.432 -0.098,0.939 -0.215,1.41 l -1.488,5.639 h -0.959 l 1.527,-5.717 c 0.098,-0.373 0.156,-0.861 0.156,-1.234 0,-1.486 -0.979,-2.406 -2.564,-2.406 -1.703,0 -3.583,1.545 -4.17,3.719 l -1.507,5.639 h -0.959 z" />
		<path
   inkscape:connector-curvature="0"
   id="path82"
   d="m 43.827,177.639 h 0.959 l -0.49,1.859 c 0.979,-1.174 2.095,-2.094 3.778,-2.094 1.978,0 3.27,1.252 3.27,3.17 0,0.432 -0.098,0.939 -0.215,1.41 l -1.488,5.639 h -0.959 l 1.527,-5.717 c 0.098,-0.373 0.156,-0.861 0.156,-1.234 0,-1.486 -0.979,-2.406 -2.564,-2.406 -1.703,0 -3.583,1.545 -4.17,3.719 l -1.507,5.639 h -0.959 z" />
		<path
   inkscape:connector-curvature="0"
   id="path84"
   d="m 54.06,185.059 c 0,-0.959 0.353,-1.762 0.959,-2.369 0.803,-0.803 2.056,-1.254 3.543,-1.254 1.429,0 2.838,0.295 3.837,0.568 l 0.078,-0.273 c 0.079,-0.295 0.137,-0.725 0.137,-1 0,-1.506 -1.057,-2.348 -3.015,-2.348 -1.097,0 -1.938,0.195 -2.897,0.527 l -0.176,-0.861 c 0.979,-0.352 1.918,-0.566 3.152,-0.566 2.447,0 3.876,1.193 3.876,3.111 0,0.373 -0.079,0.861 -0.196,1.313 l -1.527,5.717 h -0.939 l 0.45,-1.723 c -0.959,1.135 -2.271,1.957 -4.013,1.957 -1.663,-0.001 -3.269,-0.94 -3.269,-2.799 z m 7.909,-1.411 0.235,-0.881 c -1.018,-0.254 -2.31,-0.471 -3.778,-0.471 -1.135,0 -2.056,0.354 -2.643,0.939 -0.47,0.471 -0.705,1.059 -0.705,1.705 0,1.232 0.94,2.035 2.428,2.035 1.879,0.002 3.915,-1.311 4.463,-3.327 z" />
		<path
   inkscape:connector-curvature="0"
   id="path86"
   d="m 69.071,177.639 h 0.959 l -2.682,9.984 h -0.959 z m 0.94,-3.916 h 1.194 l -0.353,1.313 h -1.194 z" />
		<path
   inkscape:connector-curvature="0"
   id="path88"
   d="m 71.653,186.115 0.685,-0.686 c 1.097,1.057 2.35,1.527 3.661,1.527 1.272,0 2.584,-0.783 2.584,-1.977 0,-0.764 -0.431,-1.332 -2.173,-1.979 -1.899,-0.705 -2.8,-1.369 -2.8,-2.682 0,-1.586 1.449,-2.896 3.7,-2.896 1.41,0 2.76,0.625 3.602,1.33 l -0.626,0.725 c -0.763,-0.627 -1.899,-1.174 -3.073,-1.174 -1.684,0 -2.584,0.92 -2.584,1.859 0,0.764 0.392,1.232 2.251,1.957 1.997,0.783 2.721,1.508 2.721,2.701 0,1.742 -1.703,3.016 -3.72,3.016 -1.546,0.002 -3.092,-0.586 -4.228,-1.721 z" />
		<path
   inkscape:connector-curvature="0"
   id="path90"
   d="m 82.123,186.115 0.685,-0.686 c 1.097,1.057 2.35,1.527 3.661,1.527 1.272,0 2.584,-0.783 2.584,-1.977 0,-0.764 -0.431,-1.332 -2.173,-1.979 -1.899,-0.705 -2.8,-1.369 -2.8,-2.682 0,-1.586 1.449,-2.896 3.7,-2.896 1.41,0 2.76,0.625 3.602,1.33 l -0.626,0.725 c -0.763,-0.627 -1.899,-1.174 -3.073,-1.174 -1.684,0 -2.584,0.92 -2.584,1.859 0,0.764 0.392,1.232 2.251,1.957 1.997,0.783 2.721,1.508 2.721,2.701 0,1.742 -1.703,3.016 -3.72,3.016 -1.546,0.002 -3.093,-0.586 -4.228,-1.721 z" />
		<path
   inkscape:connector-curvature="0"
   id="path92"
   d="m 93.219,185.059 c 0,-0.959 0.353,-1.762 0.959,-2.369 0.803,-0.803 2.056,-1.254 3.543,-1.254 1.429,0 2.838,0.295 3.837,0.568 l 0.078,-0.273 c 0.079,-0.295 0.137,-0.725 0.137,-1 0,-1.506 -1.057,-2.348 -3.015,-2.348 -1.097,0 -1.938,0.195 -2.897,0.527 l -0.176,-0.861 c 0.979,-0.352 1.918,-0.566 3.152,-0.566 2.447,0 3.876,1.193 3.876,3.111 0,0.373 -0.079,0.861 -0.196,1.313 l -1.527,5.717 h -0.939 l 0.45,-1.723 c -0.959,1.135 -2.271,1.957 -4.013,1.957 -1.664,-0.001 -3.269,-0.94 -3.269,-2.799 z m 7.909,-1.411 0.235,-0.881 c -1.018,-0.254 -2.31,-0.471 -3.778,-0.471 -1.135,0 -2.056,0.354 -2.643,0.939 -0.47,0.471 -0.705,1.059 -0.705,1.705 0,1.232 0.94,2.035 2.428,2.035 1.879,0.002 3.915,-1.311 4.463,-3.327 z" />
		<path
   inkscape:connector-curvature="0"
   id="path94"
   d="m 108.073,177.639 h 0.959 l -0.49,1.859 c 0.979,-1.174 2.095,-2.094 3.778,-2.094 1.978,0 3.27,1.252 3.27,3.17 0,0.432 -0.098,0.939 -0.215,1.41 l -1.488,5.639 h -0.959 l 1.527,-5.717 c 0.098,-0.373 0.156,-0.861 0.156,-1.234 0,-1.486 -0.979,-2.406 -2.564,-2.406 -1.703,0 -3.583,1.545 -4.17,3.719 l -1.507,5.639 h -0.959 z" />
		<path
   inkscape:connector-curvature="0"
   id="path96"
   d="m 118.835,183.551 c 0,-1.684 0.724,-3.27 1.86,-4.404 1.057,-1.059 2.486,-1.742 4.013,-1.742 2.036,0 3.309,1.154 3.916,2.406 l -0.803,0.451 c -0.607,-1.057 -1.508,-1.957 -3.171,-1.957 -1.194,0 -2.33,0.547 -3.191,1.408 -0.959,0.959 -1.585,2.33 -1.585,3.779 0,2.25 1.625,3.465 3.367,3.465 1.292,0 2.31,-0.568 3.23,-1.43 l 0.646,0.627 c -1.018,0.979 -2.291,1.703 -3.935,1.703 -2.193,0 -4.347,-1.566 -4.347,-4.306 z" />
		<path
   inkscape:connector-curvature="0"
   id="path98"
   d="m 131.712,182.963 c -0.039,0.234 -0.039,0.451 -0.039,0.666 0,2.016 1.351,3.328 3.308,3.328 1.508,0 2.447,-0.549 3.407,-1.332 l 0.568,0.686 c -1.038,0.861 -2.173,1.547 -3.975,1.547 -2.545,0 -4.346,-1.723 -4.346,-4.189 0,-1.684 0.744,-3.387 1.938,-4.58 1.018,-1.02 2.349,-1.684 3.837,-1.684 2.506,0 3.778,1.762 3.778,3.816 0,0.666 -0.098,1.234 -0.274,1.742 z m 0.177,-0.861 h 7.243 c 0.04,-0.176 0.079,-0.449 0.079,-0.822 0,-1.605 -0.881,-2.994 -2.819,-2.994 -1.214,0 -2.271,0.527 -3.073,1.33 -0.687,0.685 -1.176,1.546 -1.43,2.486 z" />
		<path
   inkscape:connector-curvature="0"
   id="path100"
   d="m 146.721,181.26 h 5.247 l -0.293,1.096 h -5.247 z" />
		<path
   inkscape:connector-curvature="0"
   id="path102"
   d="m 165.531,173.82 h 0.979 l 2.682,13.803 h -1.037 l -0.705,-3.838 h -8.085 l -2.78,3.838 h -1.136 z m 1.723,9.045 -1.469,-7.928 -5.756,7.928 z" />
		<path
   inkscape:connector-curvature="0"
   id="path104"
   d="m 172.532,183.551 c 0,-1.684 0.725,-3.27 1.86,-4.404 1.057,-1.059 2.486,-1.742 4.013,-1.742 2.036,0 3.309,1.154 3.916,2.406 l -0.803,0.451 c -0.607,-1.057 -1.508,-1.957 -3.172,-1.957 -1.194,0 -2.329,0.547 -3.19,1.408 -0.96,0.959 -1.586,2.33 -1.586,3.779 0,2.25 1.625,3.465 3.367,3.465 1.292,0 2.31,-0.568 3.23,-1.43 l 0.646,0.627 c -1.018,0.979 -2.29,1.703 -3.935,1.703 -2.191,0 -4.346,-1.566 -4.346,-4.306 z" />
		<path
   inkscape:connector-curvature="0"
   id="path106"
   d="m 185.194,185.822 c 0,-0.314 0.059,-0.705 0.117,-0.961 l 1.703,-6.342 h -1.448 l 0.234,-0.881 h 1.449 l 0.861,-3.191 h 0.959 l -0.861,3.191 h 3.445 l -0.234,0.881 h -3.445 l -1.703,6.361 c -0.06,0.256 -0.099,0.607 -0.099,0.842 0,0.822 0.627,1.195 1.625,1.195 0.431,0 0.881,-0.098 1.449,-0.313 l -0.255,0.939 c -0.528,0.195 -0.9,0.254 -1.409,0.254 -1.331,0.002 -2.388,-0.606 -2.388,-1.975 z" />
		<path
   inkscape:connector-curvature="0"
   id="path108"
   d="m 195.587,177.639 h 0.959 l -2.682,9.984 h -0.959 z m 0.939,-3.916 h 1.194 l -0.353,1.313 h -1.194 z" />
		<path
   inkscape:connector-curvature="0"
   id="path110"
   d="m 209.522,181.828 c 0,1.605 -0.704,3.133 -1.82,4.248 -1.077,1.076 -2.545,1.781 -4.111,1.781 -2.643,0 -4.444,-1.859 -4.444,-4.424 0,-1.605 0.705,-3.133 1.821,-4.248 1.076,-1.078 2.545,-1.781 4.111,-1.781 2.643,0 4.443,1.86 4.443,4.424 z m -2.603,3.699 c 0.959,-0.959 1.566,-2.27 1.566,-3.66 0,-2.252 -1.43,-3.563 -3.505,-3.563 -1.214,0 -2.368,0.566 -3.229,1.428 -0.96,0.959 -1.566,2.271 -1.566,3.662 0,2.25 1.429,3.563 3.504,3.563 1.213,0 2.369,-0.568 3.23,-1.43 z" />
		<path
   inkscape:connector-curvature="0"
   id="path112"
   d="m 214.667,177.639 h 0.959 l -0.489,1.859 c 0.979,-1.174 2.095,-2.094 3.778,-2.094 1.977,0 3.27,1.252 3.27,3.17 0,0.432 -0.1,0.939 -0.217,1.41 l -1.488,5.639 h -0.959 l 1.527,-5.717 c 0.098,-0.373 0.156,-0.861 0.156,-1.234 0,-1.486 -0.979,-2.406 -2.564,-2.406 -1.703,0 -3.583,1.545 -4.17,3.719 l -1.508,5.639 h -0.959 z" />
	</g>
</g>
<path
   style="stroke-width:0.81786126"
   inkscape:connector-curvature="0"
   id="path118"
   d="m 91.817672,83.122038 h 19.917368 c 11.6349,0 18.67177,6.89948 18.67177,16.85694 v 0.135762 c 0,11.28894 -8.77974,17.13338 -19.71372,17.13338 h -8.14672 v 14.63072 H 91.817672 Z m 19.225458,24.588182 c 5.36108,0 8.49431,-3.20602 8.49431,-7.38611 v -0.13903 c 0,-4.804942 -3.3426,-7.379562 -8.70859,-7.379562 h -8.2833 v 14.905522 h 8.49758 z" />
<path
   style="stroke-width:0.81786126"
   inkscape:connector-curvature="0"
   id="path120"
   d="m 135.15859,83.122038 h 36.77267 v 9.54444 h -26.11594 v 9.889582 h 22.98435 v 9.54771 h -22.98435 v 10.23799 h 26.46681 v 9.53789 h -37.12354 z" />
<path
   style="stroke-width:0.81786126"
   inkscape:connector-curvature="0"
   id="path122"
   d="m 175.03505,107.63988 v -0.14394 c 0,-13.852932 10.45226,-25.203212 25.42812,-25.203212 9.1944,0 14.6986,3.06043 19.22301,7.51451 l -6.82669,7.87191 c -3.7597,-3.41539 -7.58975,-5.50012 -12.46829,-5.50012 -8.21542,0 -14.14,6.8226 -14.14,15.181962 v 0.13577 c 0,8.35936 5.779,15.32672 14.14,15.32672 5.57291,0 8.98748,-2.23031 12.81752,-5.71358 l 6.82587,6.89948 c -5.01267,5.36271 -10.5913,8.70449 -19.99016,8.70449 -14.34284,-0.002 -25.00938,-11.07629 -25.00938,-25.07399 z" />
<path
   style="stroke-width:0.81786126"
   inkscape:connector-curvature="0"
   id="path124"
   d="m 70.154979,111.05036 c 0,7.73615 -3.9699,11.70605 -10.5177,11.70605 -6.547797,0 -10.51606,-4.10975 -10.51606,-12.052 V 83.122038 H 38.393333 v 27.864532 c 0,14.34447 8.011769,21.65697 21.105726,21.65697 13.09232,0 21.381353,-7.24544 21.381353,-22.01192 l 0.0867,-33.399822 -10.811313,3.68365 v 30.134912 z" />
<polygon
   style="fill:#e62733"
   transform="matrix(0.81786124,0,0,0.81786124,38.393333,2.7172798)"
   id="polygon126"
   points="220.728,34.391 220.728,0 52.069,56.688 52.069,90.199 52.09,91.041 " />
<polygon
   transform="matrix(0.81786124,0,0,0.81786124,38.393333,2.7172798)"
   id="polygon128"
   points="244.976,68.977 244.976,187.314 243.413,187.314 243.413,68.977 " />
</svg>
